<svg width="68" height="72" viewBox="0 0 68 72" fill="none" xmlns="http://www.w3.org/2000/svg">
<path d="M32.7771 7.29085L27.885 10.4818L33.7555 13.1818H35.2231L41.0936 10.4818L36.2016 7.29085V4.8363H32.7771V7.29085Z" fill="#D9D9D9"/>
<path d="M49.8993 63.3281C39.6259 68.3648 29.4162 68.4238 19.0792 63.3281C18.9776 63.1852 18.926 63.0126 18.9324 62.8372C21.0752 52.2434 23.1934 41.6005 25.4389 30.9919C25.8887 29.1733 26.6412 27.4439 27.6648 25.8767C29.3868 23.0932 29.5189 21.0167 27.7773 18.2921C27.4349 17.757 26.9848 17.0747 27.0631 16.5298C27.3762 14.4385 26.4418 13.2259 24.7589 12.1754C24.3284 11.9103 24.1034 10.4032 24.4262 10.035C24.9154 9.49013 26.2559 8.98449 26.7255 9.27904C31.9013 12.5436 36.95 12.5387 42.1307 9.27904C42.6199 8.97958 44.0875 9.45085 44.4202 9.99085C44.7528 10.5309 44.4495 11.9545 43.931 12.2883C42.3459 13.329 41.8225 14.4974 41.7149 16.4414C41.6072 18.3854 40.4038 20.1821 39.8657 22.0967C39.6576 22.8972 39.7626 23.7473 40.1592 24.4727C44.2539 30.8545 45.0513 38.2574 46.6705 45.3903C47.9229 50.9621 48.8377 56.6076 49.8895 62.2187C49.926 62.5874 49.9292 62.9588 49.8993 63.3281ZM34.5333 66.4601C36.4118 66.1263 38.3344 65.8956 40.1983 65.4243C42.571 64.8254 44.8654 63.8927 47.2527 63.3723C48.7546 63.0434 49.0481 62.4985 48.7497 61.0405C47.4435 54.6587 46.4846 48.1639 44.9387 41.8263C43.6662 36.5346 42.0099 31.3433 39.9831 26.2939C38.7209 23.1865 38.6573 20.5798 40.3157 17.7865C40.6337 17.2514 41.0349 16.515 40.9077 15.9996C40.394 13.977 41.1572 12.7792 42.9183 11.8907C43.3293 11.6845 43.4564 10.9089 43.7157 10.3885C43.1567 10.3568 42.5958 10.3848 42.0426 10.4719C39.3373 11.1789 36.6613 12.4847 33.9413 12.5239C31.5785 12.5534 29.2107 11.1543 26.8234 10.4523C26.2782 10.3736 25.7247 10.3736 25.1796 10.4523C25.3998 10.9138 25.4976 11.6109 25.8596 11.7974C27.6697 12.7252 28.4867 14.0065 27.9926 16.0929C27.8849 16.5838 28.2127 17.2072 28.4818 17.6687C30.3016 20.6141 30.7566 23.4369 28.4182 26.4216C27.4767 27.6582 26.8186 29.088 26.4907 30.609C24.2795 40.9181 22.1857 51.2272 20.131 61.5363C20.1017 61.8279 20.1434 62.1223 20.2525 62.3942C20.3615 62.6662 20.5347 62.9074 20.7572 63.0974C22.0351 63.8794 23.4193 64.4714 24.8665 64.8549C28.017 65.5078 31.2262 65.925 34.5333 66.4601Z" fill="black"/>
<path d="M34.4739 66.4601C31.1668 65.925 27.9576 65.5078 24.8022 64.8352C23.355 64.4517 21.9709 63.8598 20.6929 63.0778C20.4704 62.8878 20.2973 62.6465 20.1882 62.3746C20.0791 62.1027 20.0374 61.8083 20.0667 61.5167C22.141 51.2076 24.2348 40.8985 26.4264 30.5894C26.7649 29.0788 27.4295 27.6611 28.3735 26.4363C30.7119 23.4516 30.2569 20.624 28.4371 17.6834C28.1533 17.222 27.8256 16.574 27.9479 16.1076C28.4371 14.0212 27.625 12.74 25.8149 11.8121C25.4529 11.6256 25.3551 10.9285 25.1349 10.467C25.68 10.3883 26.2335 10.3883 26.7786 10.467C29.166 11.169 31.5338 12.5681 33.8966 12.5387C36.602 12.4994 39.2779 11.1936 41.9979 10.4867C42.5511 10.3996 43.112 10.3716 43.671 10.4032C43.4117 10.9187 43.2845 11.6992 42.8736 11.9054C41.1125 12.794 40.3493 13.9918 40.863 16.0143C40.9902 16.5052 40.589 17.2661 40.271 17.8012C38.6126 20.5945 38.6762 23.2012 39.9384 26.3087C41.9596 31.3537 43.611 36.54 44.8794 41.8263C46.4155 48.164 47.3939 54.644 48.6903 61.0405C48.9887 62.5132 48.6903 63.0434 47.1933 63.3723C44.806 63.8927 42.5116 64.845 40.1389 65.4243C38.2751 65.8956 36.3525 66.1263 34.4739 66.4601Z" fill="white"/>
</svg>
