<svg width="68" height="72" viewBox="0 0 68 72" fill="none" xmlns="http://www.w3.org/2000/svg">
<path d="M34 4V11.1716C32.4104 12.566 29.1446 14.9964 28.7978 13.5621C28.451 12.1278 25.4743 11.7692 24.0293 11.7692C23.8848 10.1755 24.2027 7.22721 26.6304 8.18342C29.058 9.13963 31.3989 7.38658 32.266 6.39052V4H34Z" fill="#D9D9D9"/>
<path d="M34 4V11.1716C35.5896 12.566 38.8554 14.9964 39.2022 13.5621C39.549 12.1278 42.5257 11.7692 43.9707 11.7692C44.1152 10.1755 43.7973 7.22721 41.3696 8.18342C38.942 9.13963 36.6011 7.38658 35.734 6.39052V4H34Z" fill="#D9D9D9"/>
<path d="M34.1707 67C28.2387 66.8784 22.3186 66.4144 16.4401 65.6105C15.637 65.4996 14.8551 65.2724 14.0573 65.0822C13.8988 65.0399 13.6664 64.9818 13.6135 64.8656C13.1433 63.7772 12.0286 63.7085 11.141 63.2806C11.0512 63.2383 10.9138 63.2225 10.8715 63.1538C9.75148 61.088 7.30533 61.0141 5.6728 59.6985C4.89088 59.0698 4.86975 58.5679 5.20788 57.749C5.7362 56.4071 6.10075 54.9753 6.71889 53.6756C8.80578 49.2799 10.8927 44.8737 13.1275 40.5573C16.0914 34.8355 20.1278 29.8851 24.682 25.352C25.7122 24.3271 26.7636 23.3233 27.8519 22.3617C28.2173 22.0577 28.4957 21.6626 28.659 21.2163C28.8223 20.77 28.8647 20.2884 28.7818 19.8205C28.6075 18.2989 28.4331 16.809 27.2338 15.6414C26.9347 15.2328 26.7389 14.7579 26.6632 14.2572C26.0187 11.9748 27.1651 9.56035 29.1728 9.10599C29.9059 8.94292 30.6685 8.96836 31.3891 9.17994C32.1098 9.39152 32.7651 9.78233 33.2937 10.3159C34.0545 11.0238 34.4983 10.9234 35.2432 10.3159C36.6644 9.11656 38.3181 8.57238 40.1355 9.42827C40.5836 9.59654 40.9707 9.89554 41.2467 10.2865C41.5227 10.6775 41.6749 11.1423 41.6835 11.6208C41.6835 12.3922 41.9952 13.1794 41.9001 13.9296C41.8123 14.6643 41.5173 15.3587 41.0495 15.932C39.7604 17.3637 39.734 19.1019 39.7657 20.8031C39.7657 21.3315 40.294 21.9496 40.7061 22.3881C43.3478 25.183 46.2324 27.7876 48.6627 30.7621C51.101 33.8729 53.3623 37.1184 55.4359 40.4833C57.9912 44.4697 60.1568 48.6929 61.9026 53.0945C62.4985 54.5978 63.0187 56.1301 63.4612 57.6856C63.683 58.457 63.7095 59.2706 62.7109 59.7302C61.5227 60.2949 60.3673 60.9264 59.2504 61.6216C58.7696 61.9122 58.4368 62.4405 57.9718 62.7787C57.5069 63.1168 56.8835 63.3968 56.3552 63.7297C55.9431 63.9833 55.5627 64.295 55.1611 64.5644C54.8724 64.8253 54.5348 65.0264 54.1679 65.1561C51.6953 65.5682 49.228 66.0543 46.7396 66.2656C42.5606 66.5985 38.3656 66.757 34.1707 67ZM34.7889 66.3185C40.3469 65.7901 46.3804 65.2301 52.4033 64.6278C53.2063 64.5486 54.1415 64.5433 54.4796 63.4813C54.5324 63.3123 54.9128 63.2225 55.1559 63.1432C56.0434 62.8526 57.005 62.7047 57.4012 61.6428C57.4752 61.442 57.8133 61.3258 58.0458 61.2095C59.2451 60.5861 60.4814 60.0367 61.6226 59.3287C62.0347 59.0751 62.5366 58.3777 62.4468 58.0184C62.0698 56.1684 61.5069 54.3612 60.7667 52.6242C58.9545 48.8203 57.0156 45.0639 54.9551 41.3867C52.7707 37.3255 50.1103 33.5389 47.0302 30.107C44.7531 27.6608 42.3545 25.352 39.9612 22.9904C39.6024 22.7074 39.3185 22.3408 39.1343 21.9227C38.95 21.5045 38.8712 21.0475 38.9045 20.5918C39.0155 19.4506 39.0736 18.2989 39.2374 17.163C39.2988 16.7289 39.5056 16.3285 39.8238 16.0271C41.4616 14.6851 40.9544 12.9628 40.6533 11.325C40.5682 11.0769 40.4293 10.8508 40.2467 10.6626C40.064 10.4745 39.842 10.329 39.5966 10.2366C37.7105 9.61319 35.37 10.6381 34.7677 12.5031C34.6991 12.7145 34.456 12.9945 34.2764 13.0315C34.0968 13.0684 33.7956 12.7779 33.7481 12.5824C33.4575 11.4887 32.6175 10.9234 31.7246 10.4162C30.6679 9.83508 28.7554 9.99358 28.1954 10.6698C27.2232 11.8322 27.3183 14.5583 28.3486 15.6837C28.6392 16.0059 29.0618 16.3546 29.1094 16.7403C29.3154 18.3253 29.6377 19.9842 29.4369 21.5639C29.3471 22.367 28.3116 23.0591 27.6934 23.804C27.5869 23.9344 27.4703 24.0563 27.3448 24.1686C21.3351 29.5606 16.3627 36.0066 12.6731 43.1883C11.3417 45.7666 10.0051 48.3554 8.79521 50.9917C7.88649 52.9835 7.1574 55.0598 6.37548 57.1097C5.84715 58.4305 6.03207 58.8849 7.26835 59.5929C8.02914 60.0261 8.82691 60.3906 9.59827 60.8027C10.1266 61.0827 10.8715 61.2782 11.104 61.722C11.6059 62.6783 12.4459 62.8738 13.2913 63.1749C13.566 63.27 13.9939 63.3598 14.0521 63.55C14.3374 64.4746 15.1087 64.5169 15.8431 64.6384C17.1111 64.8444 18.3896 65.0135 19.6682 65.1192C24.5393 65.4943 29.3999 65.8799 34.7889 66.3185Z" fill="black"/>
<path d="M34.7886 66.3186C29.4208 65.88 24.5602 65.4944 19.7049 65.077C18.4263 64.9713 17.1478 64.8023 15.8798 64.5962C15.1666 64.4747 14.3741 64.4324 14.0888 63.5079C14.0307 63.3177 13.6027 63.2279 13.328 63.1328C12.4827 62.8316 11.6426 62.6361 11.1407 61.6799C10.9082 61.2361 10.1633 61.0406 9.63498 60.7606C8.86363 60.3485 8.05 59.9839 7.30506 59.5507C6.06878 58.8427 5.905 58.3884 6.41219 57.0676C7.19411 55.0177 7.9232 52.9413 8.83193 50.9495C10.0418 48.3079 11.3785 45.7244 12.7098 43.1462C16.3994 35.9645 21.3718 29.5184 27.3815 24.1264C27.507 24.0141 27.6236 23.8923 27.7302 23.7619C28.3483 23.0169 29.3838 22.3248 29.4736 21.5218C29.6586 19.9368 29.3521 18.3043 29.1461 16.6981C29.0985 16.323 28.6759 15.9743 28.3853 15.6415C27.3286 14.5162 27.26 11.79 28.2321 10.6277C28.7921 9.95141 30.7205 9.79291 31.7613 10.3741C32.6542 10.9024 33.4942 11.4307 33.7848 12.5402C33.8323 12.7357 34.144 13.0051 34.3131 12.9893C34.4822 12.9734 34.7358 12.6881 34.8045 12.461C35.4015 10.596 37.7472 9.57102 39.6334 10.1944C39.8788 10.2868 40.1007 10.4323 40.2834 10.6205C40.466 10.8086 40.6049 11.0348 40.69 11.2828C40.9912 12.9206 41.4984 14.6429 39.8605 15.9849C39.5423 16.2864 39.3356 16.6868 39.2741 17.1208C39.1103 18.2567 39.0522 19.4085 38.9413 20.5496C38.9079 21.0054 38.9868 21.4623 39.171 21.8805C39.3552 22.2987 39.6391 22.6653 39.9979 22.9482C42.3912 25.2834 44.7898 27.6186 47.0669 30.0648C50.1471 33.4967 52.8074 37.2833 54.9918 41.3446C57.0523 45.0429 58.9912 48.7781 60.8034 52.5821C61.5436 54.319 62.1065 56.1262 62.4835 57.9763C62.5733 58.3356 62.0714 59.0329 61.6593 59.2865C60.5181 59.9945 59.2818 60.544 58.0825 61.1674C57.8501 61.2836 57.5119 61.3998 57.438 61.6006C57.0417 62.6573 56.0802 62.8105 55.1926 63.1011C54.9495 63.1803 54.5691 63.2701 54.5163 63.4392C54.1782 64.4958 53.243 64.4958 52.44 64.5857C46.359 65.2302 40.3255 65.7902 34.7886 66.3186Z" fill="white"/>
</svg>
