<svg width="25" height="25" viewBox="0 0 25 25" fill="none" xmlns="http://www.w3.org/2000/svg">
<path d="M19.1796 6H17.6562V6.92308H19.0624V17.0769H5.93761V6.92308H7.34383V6H5.82042C5.71085 6.0018 5.6027 6.02484 5.50217 6.0678C5.40165 6.11076 5.3107 6.1728 5.23452 6.25038C5.15835 6.32796 5.09844 6.41955 5.05822 6.51992C5.018 6.6203 4.99826 6.72749 5.00012 6.83538V17.1646C4.99826 17.2725 5.018 17.3797 5.05822 17.4801C5.09844 17.5805 5.15835 17.672 5.23452 17.7496C5.3107 17.8272 5.40165 17.8892 5.50217 17.9322C5.6027 17.9752 5.71085 17.9982 5.82042 18H19.1796C19.2892 17.9982 19.3973 17.9752 19.4978 17.9322C19.5984 17.8892 19.6893 17.8272 19.7655 17.7496C19.8417 17.672 19.9016 17.5805 19.9418 17.4801C19.982 17.3797 20.0017 17.2725 19.9999 17.1646V6.83538C20.0017 6.72749 19.982 6.6203 19.9418 6.51992C19.9016 6.41955 19.8417 6.32796 19.7655 6.25038C19.6893 6.1728 19.5984 6.11076 19.4978 6.0678C19.3973 6.02484 19.2892 6.0018 19.1796 6Z" fill="black"/>
<path d="M8 10H9V11H8V10Z" fill="black"/>
<path d="M11 10H12V11H11V10Z" fill="black"/>
<path d="M13 10H14V11H13V10Z" fill="black"/>
<path d="M16 10H17V11H16V10Z" fill="black"/>
<path d="M8 12H9V13H8V12Z" fill="black"/>
<path d="M11 12H12V13H11V12Z" fill="black"/>
<path d="M13 12H14V13H13V12Z" fill="black"/>
<path d="M16 12H17V13H16V12Z" fill="black"/>
<path d="M8 14H9V15H8V14Z" fill="black"/>
<path d="M11 14H12V15H11V14Z" fill="black"/>
<path d="M13 14H14V15H13V14Z" fill="black"/>
<path d="M16 14H17V15H16V14Z" fill="black"/>
<path d="M8.5 8C8.63261 8 8.75979 7.94732 8.85355 7.85355C8.94732 7.75979 9 7.63261 9 7.5V4.5C9 4.36739 8.94732 4.24021 8.85355 4.14645C8.75979 4.05268 8.63261 4 8.5 4C8.36739 4 8.24021 4.05268 8.14645 4.14645C8.05268 4.24021 8 4.36739 8 4.5V7.5C8 7.63261 8.05268 7.75979 8.14645 7.85355C8.24021 7.94732 8.36739 8 8.5 8Z" fill="black"/>
<path d="M16.5 8C16.6326 8 16.7598 7.94732 16.8536 7.85355C16.9473 7.75979 17 7.63261 17 7.5V4.5C17 4.36739 16.9473 4.24021 16.8536 4.14645C16.7598 4.05268 16.6326 4 16.5 4C16.3674 4 16.2402 4.05268 16.1464 4.14645C16.0527 4.24021 16 4.36739 16 4.5V7.5C16 7.63261 16.0527 7.75979 16.1464 7.85355C16.2402 7.94732 16.3674 8 16.5 8Z" fill="black"/>
<path d="M10 6H15V7H10V6Z" fill="black"/>
</svg>
