<svg width="68" height="72" viewBox="0 0 68 72" fill="none" xmlns="http://www.w3.org/2000/svg">
<path d="M34 4V11.1716C32.4104 12.566 29.1446 14.9964 28.7978 13.5621C28.451 12.1278 25.4743 11.7692 24.0293 11.7692C23.8848 10.1755 24.2027 7.22721 26.6304 8.18342C29.058 9.13963 31.3989 7.38658 32.266 6.39052V4H34Z" fill="#D9D9D9"/>
<path d="M34 4V11.1716C35.5896 12.566 38.8554 14.9964 39.2022 13.5621C39.549 12.1278 42.5257 11.7692 43.9707 11.7692C44.1152 10.1755 43.7973 7.22721 41.3696 8.18342C38.942 9.13963 36.6011 7.38658 35.734 6.39052V4H34Z" fill="#D9D9D9"/>
<path d="M33.9661 66.9747C32.8169 66.9747 31.6618 67.0451 30.5205 66.9512C29.6887 66.8827 28.8765 66.5933 28.0506 66.4154C27.1596 66.2237 26.2667 66.0406 25.3718 65.8659C24.3133 65.6703 23.2488 65.4846 22.1923 65.2792C22.0208 65.246 21.7429 65.1032 21.731 64.9918C21.6345 63.971 20.8421 64.1431 20.1876 64.0473C18.8255 63.8517 17.4615 63.6562 16.1073 63.4137C15.1986 63.2475 15.0941 62.8935 15.5849 62.0839C16.882 59.9329 17.5009 57.5472 18.045 55.1439C18.6481 52.4824 19.1547 49.8014 19.685 47.1263C20.1561 44.7367 20.5148 42.3216 21.0766 39.9555C21.9538 36.2674 22.7896 32.5539 25.019 29.341C25.3935 28.7635 25.6214 28.1046 25.6832 27.4207C25.9454 24.7944 26.7851 22.3735 27.9954 20.0367C28.9258 18.2435 28.5868 16.4014 27.2346 14.925C26.4027 14.0157 25.975 10.9241 26.5939 9.93652C26.7911 9.68121 27.062 9.49157 27.3706 9.39289C28.6405 8.92252 30.03 8.87312 31.3306 9.2521C32.3931 9.53956 33.4989 9.89937 34.5673 9.88372C35.6357 9.86808 36.7218 9.31467 37.8197 9.20516C38.7679 9.1113 39.7515 9.26578 40.7075 9.40071C41.3343 9.48871 41.6162 9.95608 41.6576 10.5936C41.7719 12.42 42.0341 14.268 40.2423 15.5781C40.0294 15.7326 39.9742 16.1531 39.923 16.462C39.6293 18.2885 39.9821 19.9722 40.81 21.65C41.4624 22.9557 41.9161 24.3501 42.1563 25.7878C42.454 27.6984 43.201 29.3273 44.1275 31.0012C45.1426 32.8179 45.8522 34.8477 46.4101 36.8677C47.2675 39.9613 47.9161 43.1156 48.5784 46.2541C49.0731 48.5734 49.4339 50.9219 49.9109 53.2451C50.5515 56.3563 51.0818 59.5027 52.7001 62.3264C53.1416 63.0969 52.4596 63.314 51.9116 63.4078C50.4273 63.6659 48.9332 63.8771 47.4371 64.0688C46.9187 64.1372 46.4751 64.1724 46.3726 64.8314C46.347 65.0074 46.0375 65.2225 45.8247 65.2714C44.7385 65.4983 43.6367 65.6508 42.5505 65.8796C41.565 66.0849 40.5971 66.3685 39.6155 66.5933C38.9878 66.7706 38.3452 66.891 37.6956 66.9531C36.4498 67.0099 35.2001 66.9688 33.9503 66.9688L33.9661 66.9747ZM33.9976 65.9265C35.9333 65.8366 37.871 66.1318 39.8008 65.3516C41.1234 64.8158 42.7043 64.9175 44.163 64.6887C44.5158 64.632 45.0677 64.4657 45.1485 64.233C45.4048 63.3902 46.0513 63.269 46.7393 63.1634C47.9693 62.9678 49.2032 62.8094 50.4352 62.6256C51.2749 62.5005 51.3696 62.039 51.1389 61.292C50.3702 58.783 49.5265 56.2859 48.9588 53.73C48.058 49.6724 47.3484 45.5697 46.5737 41.4847C45.937 38.1232 45.0441 34.836 43.5263 31.758C43.0729 30.835 42.5289 30.0763 41.3738 29.8279C38.8112 29.2745 36.298 28.5314 34.2559 26.7323C34.0863 26.5837 33.5226 26.6228 33.3314 26.7891C31.5703 28.3188 29.4162 29.3341 27.1084 29.7223C25.8508 29.9531 25.153 30.7001 24.6957 31.7639C24.2601 32.7788 23.7594 33.7839 23.4814 34.8438C22.6496 38.0136 21.8473 41.1933 21.1555 44.3945C20.2428 48.6203 19.4997 52.8813 18.5732 57.1052C18.2578 58.5503 17.6842 59.9564 17.0889 61.3213C16.742 62.1035 16.8445 62.4946 17.6803 62.6276C18.9438 62.8231 20.2152 62.9659 21.4728 63.1927C21.9006 63.2709 22.5708 63.4567 22.6555 63.7324C22.9492 64.7102 23.6924 64.6691 24.4296 64.7552C25.1668 64.8412 25.9296 64.9331 26.6688 65.0798C27.9718 65.3379 29.253 65.7349 30.5658 65.8952C31.6874 66.036 32.8524 65.9265 33.9976 65.9265ZM41.768 28.8736C41.4506 27.364 41.2772 26.0479 40.8829 24.8023C40.3645 23.1636 39.5209 21.6187 39.0892 19.9643C38.5589 17.9306 38.3125 15.8363 40.1635 14.1624C40.7982 13.5894 40.9421 11.2448 40.4098 10.5545C40.3172 10.4463 40.203 10.3583 40.0745 10.296C39.9459 10.2338 39.8057 10.1986 39.6628 10.1927C38.8211 10.224 37.9814 10.3511 37.1397 10.4234C35.8032 10.5369 34.5969 11.2936 33.1224 10.8497C31.648 10.4058 30.1144 10.3394 28.5887 10.1751C28.4141 10.1696 28.2403 10.2018 28.0794 10.2693C27.9184 10.3368 27.7741 10.4381 27.6564 10.5662C27.0493 11.3484 27.3252 13.6011 28.0506 14.309C29.4068 15.6466 29.9331 18.4743 28.9948 20.1971C27.68 22.6101 26.9665 25.1855 26.5427 27.8665C26.4323 28.5529 26.6432 28.9479 27.3666 28.7015C28.4764 28.3261 29.6197 27.9682 30.6269 27.3953C31.7485 26.7597 32.7341 25.8895 33.8892 25.0487C35.89 27.1567 38.4958 28.2987 41.768 28.8736V28.8736Z" fill="black"/>
<path d="M33.9975 65.9265C32.8502 65.9265 31.6873 66.036 30.5558 65.8971C29.243 65.7368 27.9617 65.3398 26.6588 65.0817C25.9196 64.935 25.1686 64.8451 24.4196 64.7571C23.6705 64.6691 22.9333 64.7199 22.6455 63.7343C22.5647 63.4586 21.8945 63.2729 21.4628 63.1946C20.2052 62.9678 18.9338 62.8309 17.6703 62.6295C16.8365 62.4965 16.734 62.1132 17.0789 61.3232C17.6703 59.9544 18.2478 58.5523 18.5632 57.1071C19.4897 52.8852 20.2328 48.6242 21.1454 44.3964C21.8373 41.1952 22.6396 38.0156 23.4714 34.8457C23.7494 33.7858 24.2599 32.7807 24.6857 31.7658C25.143 30.7 25.8408 29.955 27.0984 29.7242C29.4062 29.3361 31.5603 28.3207 33.3214 26.791C33.5185 26.6248 34.0763 26.5856 34.2458 26.7343C36.288 28.5333 38.7933 29.2764 41.3637 29.8298C42.5188 30.0782 43.0629 30.8369 43.5162 31.7599C45.034 34.8457 45.927 38.1251 46.5637 41.4866C47.3383 45.5716 48.048 49.6743 48.9488 53.7319C49.5165 56.2878 50.3601 58.785 51.1289 61.2939C51.3595 62.0428 51.2649 62.5024 50.4252 62.6275C49.1932 62.8114 47.9593 62.9756 46.7292 63.1653C46.0413 63.2709 45.3948 63.3921 45.1385 64.235C45.0675 64.4677 44.5156 64.6261 44.1529 64.6906C42.6943 64.9194 41.1134 64.8177 39.7907 65.3535C37.8708 66.1318 35.9331 65.8365 33.9975 65.9265Z" fill="white"/>
<path d="M41.768 28.8737C38.4959 28.2988 35.89 27.1489 33.8834 25.0389C32.7283 25.8876 31.7427 26.7578 30.6211 27.3856C29.6138 27.9585 28.4705 28.3164 27.3608 28.6918C26.6373 28.9382 26.4264 28.5432 26.5368 27.8568C26.9606 25.1758 27.6742 22.6004 28.989 20.1873C29.9272 18.4645 29.4009 15.6369 28.0448 14.2993C27.3273 13.5914 27.0592 11.3309 27.6505 10.5565C27.7683 10.4284 27.9126 10.3271 28.0735 10.2596C28.2345 10.1921 28.4082 10.1599 28.5829 10.1654C30.1027 10.3297 31.6638 10.404 33.1166 10.84C34.5693 11.2761 35.7974 10.5272 37.1338 10.4137C37.9755 10.3414 38.8152 10.2182 39.6569 10.183C39.7999 10.1889 39.94 10.2241 40.0686 10.2863C40.1972 10.3486 40.3114 10.4366 40.404 10.5448C40.9362 11.235 40.7982 13.5797 40.1576 14.1527C38.3067 15.8266 38.5531 17.9209 39.0833 19.9546C39.515 21.609 40.3587 23.1538 40.8771 24.7926C41.2772 26.048 41.4507 27.364 41.768 28.8737Z" fill="white"/>
</svg>
