<svg width="10" height="16" viewBox="0 0 10 16" fill="none" xmlns="http://www.w3.org/2000/svg">
<path d="M5 0.00878906C2.238 0.00878906 0 2.23779 0 4.99879C0 9.77279 5 15.9988 5 15.9988C5 15.9988 10 9.77179 10 4.99879C10 2.23879 7.762 0.00878906 5 0.00878906ZM5 7.75979C4.28392 7.75979 3.59716 7.47533 3.09081 6.96898C2.58446 6.46263 2.3 5.77587 2.3 5.05979C2.3 4.3437 2.58446 3.65695 3.09081 3.1506C3.59716 2.64425 4.28392 2.35979 5 2.35979C5.71608 2.35979 6.40284 2.64425 6.90919 3.1506C7.41554 3.65695 7.7 4.3437 7.7 5.05979C7.7 5.77587 7.41554 6.46263 6.90919 6.96898C6.40284 7.47533 5.71608 7.75979 5 7.75979Z" fill="white"/>
</svg>
