<svg width="48" height="48" viewBox="0 0 48 48" fill="none" xmlns="http://www.w3.org/2000/svg">
<g filter="url(#filter0_d_243_964)">
<circle cx="24" cy="24" r="20" fill="white" fill-opacity="0.8" shape-rendering="crispEdges"/>
</g>
<path fill-rule="evenodd" clip-rule="evenodd" d="M19.4539 14.0081C17.1023 14.1413 15.0752 15.7923 14.2882 18.2155C14.0679 18.8938 14.0014 19.354 14 20.2109C13.9993 20.6548 14.0213 21.1529 14.0513 21.3689C14.231 22.6644 14.6682 23.978 15.3404 25.2428C15.5816 25.6964 16.0017 26.3998 16.1012 26.5166C16.2048 26.6381 16.4124 26.6433 16.5204 26.5271C16.6509 26.3866 16.6179 26.2312 16.3715 25.8264C15.5367 24.4548 15.0367 23.2566 14.7664 21.9794C14.4052 20.2729 14.5716 18.7359 15.2562 17.4528C16.6616 14.8188 19.7768 13.874 22.2434 15.3337C22.6816 15.593 23.0087 15.8653 23.459 16.3455C23.79 16.6986 23.9088 16.8001 23.9911 16.8001C24.0733 16.8001 24.1921 16.6986 24.5232 16.3455C25.1323 15.6958 25.6258 15.3376 26.3184 15.0425C27.1901 14.6709 28.1558 14.5572 29.0758 14.7178C30.321 14.935 31.5225 15.7026 32.3022 16.779C33.6259 18.6066 33.7582 20.9891 32.6868 23.7023C31.7473 26.0814 29.743 28.6531 26.9504 31.063C25.9965 31.8862 24.0622 33.3288 23.9659 33.289C23.8439 33.2386 22.5009 32.2548 21.918 31.7889C20.2636 30.4664 18.7239 28.9548 17.5773 27.5273C17.3422 27.2345 17.1411 27.0221 17.0846 27.0068C16.8882 26.9538 16.6612 27.2313 16.7451 27.4219C16.8064 27.5611 17.2793 28.1518 17.8608 28.8153C19.1111 30.242 20.7074 31.6882 22.5243 33.0402C23.1194 33.483 23.7753 33.932 23.9042 33.9848C24.0393 34.04 24.1513 33.9751 25.1253 33.2762C28.5284 30.8345 31.1837 27.9968 32.6423 25.2428C33.9547 22.765 34.3385 20.1999 33.6937 18.215C33.1853 16.6496 32.1601 15.3855 30.8128 14.6628C29.9589 14.2047 29.1823 14.0106 28.2154 14.0137C26.7526 14.0183 25.4099 14.5788 24.3695 15.619C24.1831 15.8054 24.0128 15.9579 23.9911 15.9579C23.9693 15.9579 23.799 15.8054 23.6126 15.619C22.5165 14.523 20.9659 13.9224 19.4539 14.0081Z" fill="black"/>
<defs>
<filter id="filter0_d_243_964" x="0" y="0" width="48" height="48" filterUnits="userSpaceOnUse" color-interpolation-filters="sRGB">
<feFlood flood-opacity="0" result="BackgroundImageFix"/>
<feColorMatrix in="SourceAlpha" type="matrix" values="0 0 0 0 0 0 0 0 0 0 0 0 0 0 0 0 0 0 127 0" result="hardAlpha"/>
<feOffset/>
<feGaussianBlur stdDeviation="2"/>
<feComposite in2="hardAlpha" operator="out"/>
<feColorMatrix type="matrix" values="0 0 0 0 0 0 0 0 0 0 0 0 0 0 0 0 0 0 0.16 0"/>
<feBlend mode="normal" in2="BackgroundImageFix" result="effect1_dropShadow_243_964"/>
<feBlend mode="normal" in="SourceGraphic" in2="effect1_dropShadow_243_964" result="shape"/>
</filter>
</defs>
</svg>
