<svg width="20" height="20" viewBox="0 0 20 20" fill="none" xmlns="http://www.w3.org/2000/svg">
<path fill-rule="evenodd" clip-rule="evenodd" d="M0.0695624 7.71413C0.337868 8.69985 1.0637 9.48249 1.97973 9.77387L2.26243 9.86381L2.26329 14.6728L2.26415 19.4817L2.35215 19.6538C2.46988 19.8841 2.60649 19.9765 2.859 19.9967C3.08901 20.0152 3.25797 19.9311 3.41434 19.7202C3.49609 19.61 3.4962 19.6049 3.51572 14.7417L3.53527 9.87366L3.7895 9.78728C4.9427 9.39557 5.71649 8.4064 5.80879 7.20602C5.91087 5.87853 4.95784 4.53053 3.69207 4.21202L3.51572 4.16766L3.51572 2.30197L3.51572 0.436323L3.42678 0.304451C3.27616 0.0810412 3.09781 -0.0146791 2.86678 0.00380885C2.61795 0.0237426 2.43655 0.14686 2.33866 0.362259C2.27107 0.511055 2.26579 0.652113 2.26501 2.34254L2.26415 4.16266L2.03926 4.23313C1.14579 4.51313 0.432596 5.21452 0.12909 6.11164C-0.0152705 6.53837 -0.043509 7.29873 0.0695624 7.71413ZM1.28871 6.64378C1.43796 5.99681 2.00191 5.48506 2.68135 5.37996C3.36831 5.27369 4.09007 5.66501 4.39495 6.30898C4.93074 7.4408 4.0167 8.76411 2.77104 8.65995C1.76434 8.57576 1.06303 7.62189 1.28871 6.64378ZM7.11637 13.3425C7.21321 14.1526 7.7102 14.9532 8.40001 15.4103C8.65818 15.5814 9.03792 15.7549 9.26206 15.8041L9.3803 15.83L9.39113 17.72C9.40173 19.5591 9.40416 19.6128 9.48265 19.7178C9.63593 19.9229 9.76089 19.9868 10.0082 19.9868C10.2556 19.9868 10.3805 19.9229 10.5338 19.7178C10.6123 19.6128 10.6147 19.5591 10.6253 17.7214L10.6362 15.833L10.8054 15.7904C10.8984 15.767 11.1399 15.6654 11.3421 15.5646C11.6492 15.4115 11.7677 15.3228 12.0633 15.0254C12.3579 14.7288 12.4475 14.6077 12.6 14.2991C12.8338 13.8262 12.9114 13.4938 12.9101 12.9711C12.908 12.1594 12.6479 11.5415 12.0628 10.9575C11.6668 10.5624 11.3406 10.3532 10.9184 10.224L10.6356 10.1374L10.625 5.26439C10.6145 0.411857 10.6141 0.390947 10.5338 0.283462C10.3806 0.0783439 10.2556 0.0143619 10.0082 0.0143619C9.76089 0.0143619 9.63589 0.0783439 9.48265 0.283462C9.40236 0.390947 9.40197 0.411583 9.3918 5.26501L9.38155 10.1387L9.13433 10.2094C8.99834 10.2483 8.76535 10.3477 8.61653 10.4303C7.56881 11.012 6.97549 12.1637 7.11637 13.3425ZM8.53357 12.2564C9.14653 11.017 10.9108 11.0405 11.5059 12.2959C11.6235 12.5441 11.6314 12.5876 11.6314 12.9914C11.6314 13.4028 11.6253 13.4344 11.4976 13.6937C11.1702 14.3584 10.4392 14.7446 9.74924 14.6175C9.11098 14.5 8.62181 14.0745 8.41823 13.4596C8.38589 13.362 8.3704 13.1622 8.37693 12.9276C8.38655 12.5832 8.39962 12.5273 8.53357 12.2564ZM14.2338 7.47066C14.4161 8.55379 15.169 9.42812 16.227 9.78525L16.4812 9.87104L16.5007 14.7531C16.52 19.5584 16.5215 19.6367 16.5985 19.7399C16.8878 20.1276 17.481 20.0721 17.6778 19.639C17.7475 19.4856 17.7507 19.2741 17.7523 14.6713L17.754 9.86381L18.0367 9.77387C18.4575 9.64004 18.8251 9.40577 19.1799 9.04536C19.5433 8.67624 19.7083 8.41508 19.8786 7.93929C19.9957 7.61231 20.0012 7.57045 19.9999 7.01059C19.9986 6.47306 19.9895 6.39833 19.89 6.11164C19.5753 5.20432 18.8719 4.51352 17.9772 4.23313L17.7523 4.16266L17.7515 2.34254C17.7507 0.652112 17.7454 0.511054 17.6778 0.362258C17.5836 0.15495 17.4001 0.0261642 17.1671 0.00380822C16.9547 -0.0165947 16.814 0.0430882 16.6376 0.228391L16.5203 0.351665L16.5095 2.25566L16.4986 4.15965L16.2096 4.24927C15.6209 4.43192 14.9857 4.93498 14.636 5.49546C14.2729 6.07748 14.1231 6.81314 14.2338 7.47066ZM15.5625 6.45684C15.8118 5.7338 16.5852 5.26396 17.3351 5.37996C18.3593 5.53838 18.9931 6.53227 18.6917 7.50725C18.4381 8.32784 17.5622 8.82801 16.7452 8.61871C16.4115 8.53319 16.2105 8.42395 15.9716 8.19812C15.507 7.75903 15.3475 7.0802 15.5625 6.45684Z" fill="white"/>
</svg>
