<svg width="84" height="66" viewBox="0 0 84 66" fill="none" xmlns="http://www.w3.org/2000/svg">
<path fill-rule="evenodd" clip-rule="evenodd" d="M68.2287 65.955C72.4243 65.7253 76.0685 64.0787 79.0592 61.0612C81.4954 58.6031 83.0536 55.7777 83.6819 52.6788C83.8738 51.7324 83.9582 50.944 83.9918 49.7835C84.1068 45.8132 83.0149 42.4278 80.6382 39.3863C80.0518 38.6359 78.5261 37.1062 77.8332 36.5738C75.1982 34.5492 72.5454 33.6889 69.2626 33.7941C66.4172 33.8854 64.2129 34.5538 62.1703 35.9448C61.3088 36.5315 61.0443 36.6854 60.7377 36.7787C60.2533 36.9261 59.9705 36.7514 59.6089 36.0814C59.1961 35.3166 59.0586 34.2208 59.144 32.3784C59.3759 27.3769 60.9771 22.6592 64.0098 18.0418C66.158 14.7711 68.5657 12.1796 71.5747 9.89941C73.9493 8.09992 77.0627 6.37905 79.9958 5.2447L80.6892 4.97658L80.6896 2.48846L80.69 0.000335404L80.2955 0.146064C79.3029 0.512664 76.4559 1.68799 75.2484 2.22969C73.7008 2.92399 70.8836 4.33316 69.5891 5.06047C63.1663 8.66929 58.2242 12.8317 54.699 17.6017C51.1378 22.4205 48.878 27.4401 47.7421 33.055C46.7753 37.8346 46.7249 43.4596 47.6088 47.9406C48.5589 52.7572 50.5389 56.6979 53.6179 59.9004C57.3242 63.7554 61.2927 65.6758 66.1336 65.9567C67.133 66.0147 67.1378 66.0147 68.2287 65.955ZM21.2688 65.954C23.7845 65.8083 26.2686 65.1072 28.3018 63.969C31.0519 62.4297 33.5931 59.8401 35.1395 57.0017C36.9143 53.7436 37.4777 49.6865 36.6908 45.8286C36.2168 43.5045 35.17 41.2911 33.6182 39.3313C33.0607 38.6273 31.7459 37.2856 31.1167 36.7787C29.1745 35.2137 27.0837 34.2646 24.8045 33.9134C23.9847 33.7871 22.4818 33.7472 21.5123 33.826C19.0102 34.0295 17.0925 34.665 15.2862 35.8893C14.009 36.755 13.6516 36.9196 13.3021 36.803C12.8834 36.6633 12.4685 35.9571 12.2714 35.0484C12.171 34.5858 12.1568 34.3486 12.1607 33.1975C12.1735 29.2985 13.0872 25.5386 14.9547 21.7001C17.8383 15.773 22.2776 10.9715 27.8702 7.73122C29.4504 6.81561 30.8344 6.13974 32.6676 5.38856L33.7015 4.96491L33.7157 2.48246L33.7298 3.23464e-06L33.3348 0.142429C32.6797 0.378597 30.4447 1.28161 29.4298 1.72016C24.4539 3.87057 19.9862 6.38993 16.3569 9.09205C13.4288 11.2722 10.7915 13.7655 8.72351 16.309C6.00557 19.6517 3.66986 23.7656 2.25084 27.7093C1.5196 29.7415 0.960193 31.8662 0.588588 34.0227C-0.216833 38.6964 -0.194738 43.803 0.64921 48.0232C1.63577 52.9567 3.66528 56.8942 6.92412 60.1976C11.004 64.3332 15.828 66.269 21.2688 65.954Z" fill="white"/>
</svg>
