<svg width="24" height="24" viewBox="0 0 24 24" fill="none" xmlns="http://www.w3.org/2000/svg">
<path fill-rule="evenodd" clip-rule="evenodd" d="M8.34293 0.0702297C4.71057 0.52012 1.63696 3.0473 0.476829 6.53795C-0.507301 9.49913 0.0509011 12.7584 1.9758 15.2901C2.35266 15.7858 3.19387 16.6277 3.68659 17.0023C4.75416 17.814 5.90942 18.3808 7.15083 18.702C8.91641 19.1587 10.9689 19.0626 12.6773 18.4433C13.6573 18.0881 14.8292 17.4203 15.5146 16.8265C15.6633 16.6977 15.8032 16.5923 15.8255 16.5923C15.8479 16.5923 17.4692 18.1975 19.4283 20.1593C21.3875 22.1212 23.0728 23.7876 23.1733 23.8623C23.4298 24.0531 23.6319 24.0459 23.8389 23.8389C24.0459 23.6319 24.0531 23.4298 23.8623 23.1733C23.7876 23.0728 22.1213 21.3875 20.1594 19.4282C18.1976 17.469 16.5925 15.8477 16.5925 15.8253C16.5925 15.803 16.6978 15.6631 16.8266 15.5144C17.1874 15.098 17.7327 14.2535 18.017 13.6709C18.6813 12.3099 18.9829 11.0047 18.9829 9.49116C18.9829 7.99548 18.7146 6.80743 18.0558 5.38548C17.3609 3.88577 15.9917 2.35591 14.5363 1.45323C12.6671 0.293909 10.4802 -0.194464 8.34293 0.0702297ZM10.8506 1.12038C14.482 1.7348 17.3168 4.57466 17.8745 8.15691C18.2976 10.8751 17.4264 13.5577 15.4921 15.4919C13.5579 17.4263 10.8754 18.2975 8.15727 17.8743C4.86168 17.3612 2.10948 14.8563 1.28974 11.6237C1.09962 10.8741 1.02842 10.3006 1.02819 9.51671C1.02744 7.18518 1.86645 5.15608 3.51148 3.51101C4.80314 2.21932 6.35555 1.41638 8.13201 1.12122C8.89438 0.994525 10.1047 0.99415 10.8506 1.12038Z" fill="#242424"/>
</svg>
