<svg width="24" height="24" viewBox="0 0 24 24" fill="none" xmlns="http://www.w3.org/2000/svg">
<path fill-rule="evenodd" clip-rule="evenodd" d="M6.54466 0.00967649C3.72272 0.169553 1.29025 2.15073 0.345848 5.05858C0.0814562 5.87252 0.00171158 6.42476 2.18756e-05 7.45305C-0.000869912 7.98573 0.0256021 8.58345 0.0615552 8.84262C0.27718 10.3973 0.801786 11.9737 1.60853 13.4914C1.89789 14.0357 2.40198 14.8798 2.52148 15.0199C2.64577 15.1657 2.89491 15.172 3.02445 15.0325C3.18108 14.8639 3.14146 14.6774 2.84581 14.1917C1.844 12.5458 1.24402 11.1079 0.91969 9.5753C0.486281 7.52753 0.685901 5.68313 1.50747 4.14333C3.19394 0.982581 6.93217 -0.151161 9.89211 1.60041C10.4179 1.91157 10.8105 2.23835 11.3507 2.81465C11.748 3.23834 11.8906 3.36012 11.9893 3.36012C12.088 3.36012 12.2305 3.23834 12.6278 2.81465C13.3588 2.03492 13.9509 1.60511 14.7821 1.25095C15.8282 0.805119 16.987 0.668688 18.091 0.861309C19.5852 1.12199 21.027 2.0431 21.9626 3.33485C23.5511 5.52795 23.7099 8.38694 22.4241 11.6427C21.2967 14.4977 18.8917 17.5838 15.5405 20.4756C14.3958 21.4634 12.0747 23.1946 11.959 23.1468C11.8127 23.0864 10.201 21.9058 9.50164 21.3467C7.51634 19.7597 5.66869 17.9457 4.29281 16.2327C4.01063 15.8814 3.76928 15.6265 3.7015 15.6082C3.46584 15.5445 3.19342 15.8776 3.2941 16.1063C3.36765 16.2734 3.9352 16.9821 4.633 17.7784C6.13336 19.4904 8.04892 21.2258 10.2292 22.8482C10.9433 23.3796 11.7303 23.9184 11.885 23.9817C12.0471 24.048 12.1815 23.9701 13.3504 23.1314C17.434 20.2015 20.6204 16.7962 22.3708 13.4914C23.9456 10.5179 24.4061 7.43991 23.6325 5.05798C23.0224 3.17947 21.7921 1.66256 20.1754 0.795317C19.1507 0.245601 18.2188 0.0127588 17.0585 0.0164475C15.3031 0.0220057 13.6918 0.69456 12.4434 1.94275C12.2197 2.16645 12.0153 2.34952 11.9893 2.34952C11.9632 2.34952 11.7589 2.16645 11.5351 1.94275C10.2198 0.627658 8.35912 -0.0931015 6.54466 0.00967649Z" fill="#242424"/>
</svg>
