<svg width="30" height="30" viewBox="0 0 30 30" fill="none" xmlns="http://www.w3.org/2000/svg">
<path fill-rule="evenodd" clip-rule="evenodd" d="M8.18083 0.0120956C4.6534 0.211942 1.61281 2.68842 0.43231 6.32323C0.10182 7.34065 0.00213947 8.03095 2.73444e-05 9.31631C-0.00108739 9.98217 0.0320026 10.7293 0.076944 11.0533C0.346475 12.9966 1.00223 14.9671 2.01066 16.8642C2.37236 17.5447 3.00248 18.5997 3.15185 18.7749C3.30721 18.9572 3.61863 18.965 3.78056 18.7907C3.97634 18.5799 3.92683 18.3468 3.55726 17.7396C2.30501 15.6823 1.55502 13.8848 1.14961 11.9691C0.607851 9.40941 0.857376 7.10391 1.88434 5.17916C3.99242 1.22823 8.66521 -0.188951 12.3651 2.00051C13.0224 2.38947 13.5131 2.79794 14.1884 3.51831C14.685 4.04792 14.8632 4.20015 14.9866 4.20015C15.11 4.20015 15.2881 4.04792 15.7847 3.51831C16.6985 2.54365 17.4386 2.00639 18.4776 1.56368C19.7852 1.0064 21.2337 0.83586 22.6137 1.07664C24.4815 1.40249 26.2837 2.55388 27.4532 4.16856C29.4388 6.90994 29.6374 10.4837 28.0301 14.5534C26.6209 18.1221 23.6146 21.9797 19.4256 25.5945C17.9947 26.8293 15.0934 28.9932 14.9488 28.9335C14.7659 28.858 12.7513 27.3822 11.8771 26.6834C9.39542 24.6997 7.08587 22.4322 5.36601 20.2909C5.01328 19.8517 4.7116 19.5331 4.62688 19.5102C4.3323 19.4306 3.99178 19.847 4.11762 20.1329C4.20956 20.3417 4.919 21.2277 5.79125 22.223C7.6667 24.363 10.0612 26.5322 12.7864 28.5603C13.6791 29.2246 14.6629 29.898 14.8563 29.9771C15.0589 30.0601 15.2269 29.9626 16.688 28.9143C21.7926 25.2518 25.7755 20.9952 27.9635 16.8642C29.9321 13.1474 30.5077 9.29988 29.5406 6.32247C28.778 3.97434 27.2402 2.0782 25.2192 0.994146C23.9384 0.307001 22.7735 0.0159485 21.3231 0.0205593C19.1289 0.0275072 17.1148 0.8682 15.5543 2.42844C15.2746 2.70806 15.0191 2.9369 14.9866 2.9369C14.954 2.9369 14.6986 2.70806 14.4189 2.42844C12.7747 0.784573 10.4489 -0.116377 8.18083 0.0120956Z" fill="white"/>
</svg>
