<svg width="22" height="26" viewBox="0 0 22 26" fill="none" xmlns="http://www.w3.org/2000/svg">
<path fill-rule="evenodd" clip-rule="evenodd" d="M10.0162 0.979095C7.48803 1.42019 5.52184 3.37473 5.11146 5.85495C5.00889 6.47461 5.04492 7.56536 5.18643 8.12647C5.3871 8.92223 5.5979 9.40154 6.03708 10.0607C6.87898 11.3243 8.27957 12.2658 9.7527 12.5585C10.9052 12.7875 12.0873 12.6985 13.0655 12.3089C13.6314 12.0835 13.809 11.9944 14.1957 11.7416C15.9239 10.6118 16.9035 8.82694 16.905 6.80555C16.9058 5.59001 16.5942 4.56205 15.9161 3.54329C15.071 2.27369 13.7218 1.36405 12.1849 1.02759C11.6893 0.919087 10.5112 0.892763 10.0162 0.979095ZM12.0659 2.22638C13.4707 2.56236 14.6017 3.46484 15.233 4.7534C15.5554 5.41155 15.6614 5.84212 15.6929 6.62109C15.7213 7.32443 15.6581 7.76784 15.4418 8.38141C14.7369 10.3813 12.685 11.6745 10.5363 11.473C9.91196 11.4144 9.44703 11.2831 8.87691 11.0044C7.61897 10.3893 6.75208 9.32374 6.36702 7.91951C6.21881 7.37902 6.219 6.20193 6.36745 5.66507C6.60963 4.78897 7.01334 4.09284 7.63606 3.47748C8.35891 2.76314 9.23056 2.31927 10.229 2.15698C10.7457 2.07306 11.5522 2.10353 12.0659 2.22638ZM9.59087 13.9558C6.06507 14.4305 3.03656 16.5642 1.42617 19.7081C0.667563 21.1891 0.285645 22.7644 0.285645 24.4121V25.0626H10.9999H21.7142L21.6826 24.3667C21.5973 22.4893 21.2683 21.167 20.5236 19.7081C20.211 19.0957 19.6788 18.2688 19.3095 17.8218C18.9949 17.441 18.1879 16.6337 17.7988 16.3107C16.523 15.2513 14.8236 14.4344 13.1844 14.0924C12.1734 13.8814 10.5897 13.8213 9.59087 13.9558ZM12.4467 15.173C16.2411 15.7727 19.3274 18.597 20.2117 22.2792C20.2999 22.6467 20.4668 23.6869 20.4668 23.8696C20.4668 23.8771 16.1978 23.8832 10.9801 23.8832H1.49337L1.55287 23.3761C2.0117 19.4636 4.91132 16.2285 8.77196 15.3218C9.19676 15.222 9.55493 15.1631 10.1858 15.0892C10.515 15.0507 12.027 15.1067 12.4467 15.173Z" fill="#242424"/>
</svg>
