<svg width="140" height="38" viewBox="0 0 140 38" fill="none" xmlns="http://www.w3.org/2000/svg">
<g clip-path="url(#clip0_899_4)">
<path d="M15.6367 10.8679C15.6367 14.3642 14.7506 17.018 12.9785 18.8293C11.2063 20.6407 8.60018 21.5463 5.16011 21.5463H0V0.252686H5.16011C8.60018 0.252686 11.2063 1.15308 12.9785 2.95388C14.7506 4.75468 15.6367 7.39269 15.6367 10.8679ZM14.1668 10.8679C14.1668 7.60331 13.385 5.24437 11.8213 3.7911C10.2577 2.33782 8.03726 1.61118 5.16011 1.61118H1.46985V20.1878H5.16011C6.45683 20.2086 7.74897 20.0274 8.9911 19.6508C10.0516 19.325 11.0213 18.7514 11.8213 17.9763C12.6266 17.1628 13.2272 16.1661 13.5726 15.0698C13.9688 13.8903 14.1668 12.4897 14.1668 10.8679Z" fill="#242424"/>
<path d="M37.1215 21.7991C35.6204 21.7991 34.3121 21.5253 33.1967 20.9777C32.1027 20.4474 31.1448 19.6689 30.3977 18.703C29.6165 17.6724 29.0428 16.4971 28.709 15.2436C28.3235 13.8288 28.1341 12.3669 28.146 10.8996C28.1341 9.43224 28.3235 7.97031 28.709 6.55554C29.0428 5.30201 29.6165 4.12672 30.3977 3.09611C31.1448 2.13019 32.1027 1.35172 33.1967 0.821417C34.3121 0.273806 35.6204 0 37.1215 0C38.6226 0 39.9309 0.273806 41.0463 0.821417C42.1401 1.35211 43.0979 2.13052 43.8453 3.09611C44.6265 4.12672 45.2003 5.30201 45.534 6.55554C45.9195 7.97031 46.109 9.43224 46.097 10.8996C46.109 12.3669 45.9195 13.8288 45.534 15.2436C45.2003 16.4971 44.6265 17.6724 43.8453 18.703C43.0979 19.6686 42.1401 20.447 41.0463 20.9777C39.9299 21.5253 38.6216 21.7991 37.1215 21.7991ZM37.1215 20.5038C38.3922 20.5038 39.4972 20.2669 40.4365 19.793C41.3642 19.328 42.1684 18.6455 42.782 17.8026C43.4361 16.8865 43.9087 15.8513 44.1737 14.7539C44.4854 13.4936 44.6377 12.1985 44.6271 10.8996C44.6384 9.60576 44.4861 8.3158 44.1737 7.06103C43.9065 5.96928 43.434 4.93961 42.782 4.0281C42.166 3.18347 41.3627 2.49639 40.4365 2.02195C39.4983 1.53647 38.3933 1.29426 37.1215 1.29531C35.8497 1.29636 34.7447 1.53858 33.8065 2.02195C32.8803 2.49639 32.077 3.18347 31.461 4.0281C30.8084 4.93925 30.3358 5.96904 30.0694 7.06103C29.7562 8.31566 29.6038 9.60572 29.6159 10.8996C29.6045 12.1986 29.7569 13.4938 30.0694 14.7539C30.3336 15.8515 30.8063 16.8869 31.461 17.8026C32.0746 18.6455 32.8788 19.328 33.8065 19.793C34.7447 20.2669 35.8497 20.5038 37.1215 20.5038Z" fill="#242424"/>
<path d="M64.4233 15.3225L65.987 20.0299H66.0495L67.5819 15.3857L73.2737 0.252686H74.7748L66.7688 21.5463H65.299L57.293 0.252686H58.7941L64.4233 15.3225Z" fill="#242424"/>
<path d="M89.1915 21.5463H87.7217V0.252686H89.1915V21.5463Z" fill="#242424"/>
<path d="M116.617 1.61118L109.987 1.57959V21.5463H108.519V1.57959L101.889 1.61118V0.252686H116.618L116.617 1.61118Z" fill="#242424"/>
<path d="M132.87 6.4765L131.306 1.77073H131.243L129.711 6.41331L124.019 21.5463H122.518L130.524 0.252686H131.994L140 21.5463H138.499L132.87 6.4765Z" fill="#242424"/>
<path d="M57.5163 36.9828C57.546 36.9069 57.582 36.8153 57.6258 36.7079C57.6696 36.6005 57.7212 36.4867 57.7821 36.3698L59.0581 33.6844H59.3583V37.9495H59.0706V34.885C59.0706 34.8297 59.0706 34.7681 59.0706 34.7017L59.08 34.4964C59.08 34.4269 59.0894 34.3574 59.0925 34.291C59.0956 34.2247 59.1034 34.1615 59.1113 34.1078H59.1066C59.0941 34.1457 59.0784 34.1915 59.0565 34.2468C59.0346 34.3021 59.0159 34.3574 58.994 34.4142C58.9721 34.4711 58.9518 34.5248 58.9283 34.5722C58.9049 34.6196 58.8861 34.6701 58.8689 34.7081L57.6617 37.2102H57.374L56.1669 34.7081C56.1512 34.6701 56.1309 34.6243 56.1075 34.5722C56.084 34.5201 56.0637 34.4648 56.0418 34.4142C56.0199 34.3637 56.0011 34.3005 55.9792 34.2468C55.9573 34.1931 55.9417 34.1457 55.9292 34.1078H55.9167C55.9167 34.1615 55.9261 34.2231 55.9323 34.291C55.9386 34.359 55.9448 34.4269 55.948 34.4964C55.9511 34.5659 55.9558 34.6338 55.9573 34.7017C55.9589 34.7697 55.9573 34.8297 55.9573 34.885V37.9495H55.6665V33.6844H55.9667L57.2427 36.3698C57.3021 36.4867 57.3521 36.6005 57.399 36.7079C57.446 36.8153 57.4804 36.9069 57.5085 36.9828H57.5163Z" fill="#242424"/>
<path d="M61.7007 37.9495H61.4067V33.6844H61.7007V37.9495Z" fill="#242424"/>
<path d="M63.7524 33.6907H64.0464V37.6777H66.1433V37.9494H63.7524V33.6907Z" fill="#242424"/>
<path d="M68.2744 36.692L67.8178 37.9557H67.5176L69.1188 33.6907H69.4002L71.0014 37.9557H70.7012L70.2446 36.692H68.2744ZM69.5629 34.9102L69.2704 34.0066H69.2579L68.9452 34.9165L68.376 36.4393H70.1461L69.5629 34.9102Z" fill="#242424"/>
<path d="M75.0171 36.9512C75.0922 37.0681 75.161 37.1786 75.2235 37.2797C75.2861 37.3808 75.3408 37.4724 75.3799 37.5577H75.3924C75.3752 37.4345 75.3642 37.3082 75.358 37.1786C75.3517 37.0491 75.3486 36.9069 75.3486 36.7553V33.6908H75.6426V37.9558H75.3298L73.2783 34.6891L73.0719 34.3605C73.0093 34.2594 72.9546 34.1662 72.9155 34.0825H72.903C72.9202 34.2042 72.9312 34.3305 72.9374 34.4616C72.9437 34.5927 72.9468 34.7333 72.9468 34.885V37.9495H72.6528V33.6844H72.9656L75.0171 36.9512Z" fill="#242424"/>
<path d="M79.2451 38C78.976 38.0076 78.7087 37.9536 78.4632 37.8421C78.2451 37.735 78.0537 37.5795 77.9034 37.3871C77.7474 37.1808 77.6327 36.9458 77.5657 36.6952C77.4156 36.126 77.4156 35.5269 77.5657 34.9576C77.632 34.7068 77.7468 34.4716 77.9034 34.2657C78.0528 34.0725 78.2444 33.9168 78.4632 33.8108C78.7102 33.7034 78.9762 33.6479 79.2451 33.6479C79.5139 33.6479 79.78 33.7034 80.0269 33.8108C80.2459 33.9165 80.4376 34.0723 80.5867 34.2657C80.7433 34.4716 80.8581 34.7068 80.9245 34.9576C81.0746 35.5269 81.0746 36.126 80.9245 36.6952C80.8574 36.9458 80.7427 37.1808 80.5867 37.3871C80.4368 37.5798 80.2454 37.7354 80.0269 37.8421C79.7815 37.9537 79.5142 38.0077 79.2451 38ZM79.2451 37.741C79.4727 37.7449 79.6981 37.6951 79.9034 37.5956C80.0889 37.5026 80.2498 37.3661 80.3725 37.1976C80.5036 37.0145 80.5982 36.8074 80.6508 36.5878C80.7134 36.3358 80.7439 36.0768 80.7415 35.817C80.7442 35.5582 80.7137 35.3001 80.6508 35.0493C80.5978 34.8308 80.5033 34.6248 80.3725 34.4427C80.2495 34.2736 80.0888 34.1361 79.9034 34.0414C79.6952 33.9457 79.4691 33.8961 79.2404 33.8961C79.0116 33.8961 78.7856 33.9457 78.5774 34.0414C78.392 34.1361 78.2313 34.2736 78.1083 34.4427C77.978 34.625 77.8835 34.8309 77.83 35.0493C77.7679 35.3003 77.7375 35.5582 77.7393 35.817C77.7377 36.0767 77.7681 36.3357 77.83 36.5878C77.8832 36.8072 77.9777 37.0142 78.1083 37.1976C78.231 37.3661 78.3918 37.5026 78.5774 37.5956C78.7855 37.6964 79.0143 37.7462 79.2451 37.741Z" fill="#242424"/>
</g>
<defs>
<clipPath id="clip0_899_4">
<rect width="140" height="38" fill="white"/>
</clipPath>
</defs>
</svg>
