<svg width="68" height="72" viewBox="0 0 68 72" fill="none" xmlns="http://www.w3.org/2000/svg">
<path d="M25.3091 14.0889C25.7354 14.9778 27.6181 15.2 28.5062 15.2L34.9001 14.0889V5.20001H32.2359V7.97779C30.6374 8.90372 27.2273 10.8667 26.3748 11.3111C25.3091 11.8667 24.7763 12.9778 25.3091 14.0889Z" fill="#D9D9D9"/>
<path d="M43.2832 14.0889C42.8569 14.9778 40.9742 15.2 40.0861 15.2L33.6922 14.0889V5.20001H36.3564V7.97779C37.9549 8.90372 41.3649 10.8667 42.2175 11.3111C43.2832 11.8667 43.816 12.9778 43.2832 14.0889Z" fill="#D9D9D9"/>
<path d="M28.5884 10.1175C30.4311 8.68861 31.1822 8.66971 32.789 9.83402C34.2608 10.9019 34.2608 10.9019 35.7345 9.83402C37.3375 8.6716 38.1001 8.69995 39.8951 10.0892C39.376 10.5145 38.9215 10.9454 38.4119 11.2951C36.497 12.6068 36.9553 12.5823 38.4937 13.6369C38.8835 13.9034 39.2943 14.1435 39.6822 14.4138C41.6693 15.7973 41.9641 18.1165 40.3877 20.0066C39.1878 21.4469 38.912 24.2783 39.9902 25.8207C42.0287 28.7314 41.7016 31.801 40.863 34.9594C40.3363 36.9346 39.8058 38.9116 39.3912 40.9114C38.8474 43.5386 39.6384 45.9712 40.7794 48.298C43.0765 52.9855 46.1038 57.1551 50.1142 60.5384C51.43 61.6479 52.9551 62.5136 54.3623 63.521C54.6076 63.6968 54.7426 64.02 54.9327 64.277C54.6798 64.4264 54.4421 64.6551 54.1721 64.7099C53.1148 64.8989 52.0386 64.9896 50.9889 65.2127C50.388 65.3412 49.8479 65.7513 49.2413 65.8629C48.1556 66.0632 47.0431 66.1086 45.9478 66.2617C44.7708 66.428 43.6089 66.7153 42.428 66.8287C41.0114 66.9535 39.5757 66.9743 38.1609 66.978C34.5156 66.9894 30.8684 67.0423 27.2288 66.927C25.4509 66.8703 23.6843 66.4734 21.9044 66.2371C21.1438 66.1369 20.3261 66.222 19.6587 65.9347C17.8959 65.1578 15.9944 65.1389 14.167 64.6834C13.954 64.6286 13.6231 64.4207 13.625 64.2827C13.6313 64.1515 13.6672 64.0235 13.7301 63.908C13.793 63.7925 13.8812 63.6925 13.9882 63.6155C18.822 61.0015 22.3551 57.0643 25.3272 52.5753C26.8941 50.207 28.25 47.712 29.003 44.9468C29.7446 42.225 28.8413 39.6544 28.2119 37.0593C27.7822 35.2902 27.3809 33.5134 27.0368 31.7254C26.6013 29.4705 27.5179 27.5501 28.6208 25.6619C28.9551 25.0742 29.1405 24.4145 29.1608 23.7396C29.1912 22.1784 28.849 20.7457 27.7632 19.4604C26.5614 18.0371 27.0748 15.6235 28.6075 14.5858C29.3129 14.1076 30.0146 13.6275 30.7372 13.1758C31.4598 12.724 31.6176 12.3535 30.7847 11.8186C30.0393 11.3329 29.3757 10.7318 28.5884 10.1175ZM52.7859 64.1164C52.8049 63.9935 52.822 63.8707 52.8391 63.7478C52.5976 63.5191 52.3656 63.2772 52.1089 63.0655C50.5306 61.7613 48.8401 60.5743 47.3911 59.1435C44.4323 56.2214 42.1143 52.8286 40.2641 49.0956C38.7428 46.0071 37.9441 42.8903 38.855 39.456C39.5053 36.9988 40.0302 34.5133 40.5778 32.0316C40.9125 30.5195 40.8155 29.0339 39.9883 27.6541C39.5377 26.898 38.8208 26.159 38.7485 25.3632C38.5583 23.2406 38.178 21.016 39.9503 19.2204C40.9581 18.2016 40.6444 16.1206 39.4578 15.3286C38.3283 14.5726 37.1892 13.8392 36.0768 13.0605C35.5425 12.6824 35.3485 12.2704 36.0768 11.8357C36.6448 11.4969 37.1875 11.1179 37.7007 10.7016C37.8795 10.5542 37.9213 10.2404 38.024 10.0041C37.7445 9.97956 37.3984 9.83969 37.1949 9.95121C36.5674 10.3147 35.9645 10.7188 35.3903 11.1609C34.6297 11.7279 33.8957 11.7279 33.1313 11.1609C32.5589 10.7168 31.9559 10.3132 31.3267 9.9531C31.127 9.84158 30.7809 9.98901 30.5033 10.0193C30.6098 10.2536 30.6573 10.5617 30.838 10.7129C31.321 11.1136 31.8648 11.4406 32.3764 11.8092C33.0989 12.3328 33.1066 12.6106 32.3611 13.1323C31.3001 13.8713 30.2162 14.5801 29.1399 15.2965C27.7955 16.1905 27.6453 18.1316 28.6797 19.4075C29.1927 20.0647 29.5554 20.8252 29.7427 21.6359C29.9335 22.5306 29.988 23.4488 29.9043 24.3596C29.8496 25.0017 29.6466 25.6227 29.311 26.1741C28.2519 27.9092 27.438 29.686 27.8982 31.7764C28.3907 34.0105 28.9459 36.2314 29.4308 38.4693C29.8111 40.2461 30.2808 41.9982 30.0013 43.8732C29.5773 46.7764 28.3032 49.3224 26.8181 51.7701C24.0988 56.2554 20.8224 60.2549 16.3214 63.1316C16.0609 63.298 15.8898 63.6042 15.5608 63.9822C15.9706 64.1118 16.387 64.2196 16.8082 64.3054C17.7134 64.4377 18.7592 64.2922 19.497 64.7023C20.3642 65.1843 21.2085 65.2202 22.106 65.3487C23.8174 65.5926 25.5973 65.3147 27.1946 66.2125C27.3847 66.324 27.6928 66.2806 27.9438 66.2825C31.4313 66.2919 34.9187 66.3259 38.4024 66.2825C39.7677 66.2654 41.2053 66.5717 42.4604 65.6946C42.5992 65.5982 42.8293 65.6266 43.0175 65.6115C44.5654 65.4905 46.1133 65.379 47.6592 65.2429C47.9346 65.1945 48.2041 65.1178 48.4636 65.0142C49.0405 64.8108 49.6276 64.6373 50.2226 64.4944C51.0669 64.3205 51.934 64.2392 52.7859 64.1164Z" fill="black"/>
<path d="M52.7859 64.1164C51.9302 64.2355 51.0744 64.3168 50.2187 64.4944C49.6255 64.6406 49.0403 64.8173 48.4655 65.0237C48.206 65.1273 47.9365 65.2039 47.6611 65.2524C46.1152 65.3885 44.5673 65.5 43.0194 65.6209C42.8293 65.6361 42.6011 65.6077 42.4623 65.7041C41.2072 66.5811 39.7696 66.2712 38.4043 66.2919C34.9187 66.3316 31.4313 66.2919 27.9457 66.2919C27.6947 66.2919 27.3961 66.3335 27.1965 66.222C25.5992 65.3242 23.8098 65.602 22.1079 65.3582C21.2161 65.2297 20.366 65.1938 19.4989 64.7118C18.7611 64.3016 17.7153 64.4472 16.8101 64.3149C16.3881 64.2273 15.9711 64.1175 15.5608 63.986C15.8936 63.608 16.0647 63.3018 16.3214 63.1354C20.8224 60.2587 24.0988 56.2592 26.8181 51.7739C28.3032 49.3262 29.5772 46.7802 30.0013 43.877C30.2751 42.002 29.8111 40.2499 29.4308 38.4731C28.9459 36.2352 28.3907 34.0144 27.8982 31.7802C27.438 29.6898 28.2518 27.913 29.311 26.1779C29.6466 25.6265 29.8496 25.0056 29.9043 24.3634C29.988 23.4526 29.9335 22.5344 29.7427 21.6397C29.5554 20.829 29.1927 20.0685 28.6797 19.4113C27.6452 18.1411 27.7955 16.1981 29.1399 15.3003C30.2162 14.5839 31.3001 13.8751 32.3611 13.1361C33.1065 12.6201 33.0989 12.3422 32.3763 11.813C31.8648 11.435 31.321 11.1174 30.838 10.7167C30.6573 10.5655 30.6098 10.2574 30.5033 10.0231C30.7809 9.99282 31.127 9.84539 31.3267 9.9569C31.9559 10.317 32.5589 10.7206 33.1313 11.1647C33.8919 11.7317 34.624 11.7317 35.3903 11.1647C35.9645 10.7226 36.5674 10.3185 37.1949 9.95501C37.3984 9.8435 37.7445 9.98337 38.024 10.0079C37.9213 10.2442 37.8795 10.558 37.7007 10.7054C37.1875 11.1217 36.6448 11.5007 36.0768 11.8395C35.3523 12.2742 35.5463 12.6919 36.0768 13.0643C37.1892 13.8392 38.3282 14.5764 39.4578 15.3324C40.6444 16.1244 40.9581 18.2054 39.9503 19.2242C38.1723 21.0236 38.5507 23.2445 38.7485 25.3671C38.8208 26.1628 39.5376 26.9075 39.9883 27.6579C40.8155 29.0377 40.9125 30.5176 40.5778 32.0354C40.0301 34.5171 39.5053 37.0045 38.855 39.4598C37.9441 42.8922 38.7333 46.0091 40.264 49.0994C42.1143 52.8324 44.4323 56.2252 47.3911 59.1473C48.8401 60.5781 50.5306 61.7651 52.1089 63.0693C52.3656 63.281 52.5976 63.5229 52.8391 63.7516C52.822 63.8745 52.8049 63.9973 52.7859 64.1164ZM34.5 14.5V14C34.2129 14.6494 34.4791 13.9811 34.5 14C33.8687 14.2911 34.7989 13.911 34.198 14.2474C34.0649 14.3249 33.9734 14.4887 34 14.5C34.4488 14.655 34.036 14.3847 34.5 14.5C34.4053 14.511 34.5949 14.5098 34.5 14.5Z" fill="white"/>
<path d="M34.2 13L35.499 15.25H32.9009L34.2 13Z" fill="black"/>
</svg>
