<svg width="45" height="45" viewBox="0 0 45 45" fill="none" xmlns="http://www.w3.org/2000/svg">
<circle cx="22.5" cy="22.5" r="22" stroke="white"/>
<path d="M18.675 13.8937C18.9286 13.8937 19.1718 13.9944 19.3512 14.1738C19.5305 14.3531 19.6313 14.5963 19.6313 14.8499V30.1499C19.6313 30.4035 19.5305 30.6468 19.3512 30.8261C19.1718 31.0054 18.9286 31.1062 18.675 31.1062C18.4214 31.1062 18.1782 31.0054 17.9988 30.8261C17.8195 30.6468 17.7188 30.4035 17.7188 30.1499V14.8499C17.7188 14.5963 17.8195 14.3531 17.9988 14.1738C18.1782 13.9944 18.4214 13.8937 18.675 13.8937ZM26.325 13.8937C26.5786 13.8937 26.8218 13.9944 27.0012 14.1738C27.1805 14.3531 27.2812 14.5963 27.2812 14.8499V30.1499C27.2812 30.4035 27.1805 30.6468 27.0012 30.8261C26.8218 31.0054 26.5786 31.1062 26.325 31.1062C26.0714 31.1062 25.8282 31.0054 25.6488 30.8261C25.4695 30.6468 25.3688 30.4035 25.3688 30.1499V14.8499C25.3688 14.5963 25.4695 14.3531 25.6488 14.1738C25.8282 13.9944 26.0714 13.8937 26.325 13.8937Z" fill="white"/>
</svg>
