<svg width="68" height="72" viewBox="0 0 68 72" fill="none" xmlns="http://www.w3.org/2000/svg">
<path d="M25.3091 14.0889C25.7354 14.9778 27.6181 15.2 28.5062 15.2L34.9001 14.0889V5.20001H32.2359V7.97779C30.6374 8.90372 27.2273 10.8667 26.3748 11.3111C25.3091 11.8667 24.7763 12.9778 25.3091 14.0889Z" fill="#D9D9D9"/>
<path d="M43.2832 14.0889C42.8569 14.9778 40.9742 15.2 40.0861 15.2L33.6922 14.0889V5.20001H36.3564V7.97779C37.9549 8.90372 41.3649 10.8667 42.2175 11.3111C43.2832 11.8667 43.816 12.9778 43.2832 14.0889Z" fill="#D9D9D9"/>
<path d="M34.4616 66.9728C30.3604 66.9728 26.2556 66.9728 22.1598 66.9728C20.9289 66.9728 20.8213 66.7223 21.1788 65.5551C21.9848 62.9286 22.7324 60.2912 23.4983 57.6429C24.5062 54.1639 25.5103 50.6818 26.5109 47.1967C26.9777 45.5722 27.5102 43.9585 27.8549 42.3067C28.0135 41.5426 27.8549 40.6894 27.7345 39.8926C27.0926 35.8321 27.4373 31.8152 28.2269 27.8164C28.4767 26.5458 28.8286 25.2933 29.073 24.0209C29.1541 23.5778 29.1322 23.1221 29.0092 22.6886C28.3673 20.4868 27.7053 18.2905 27.0032 16.1087C26.5328 14.6566 26.5984 14.4188 27.9843 13.8107C30.0121 12.9249 32.0326 12.5564 34.0805 13.7962C34.2957 13.9269 34.768 13.8597 34.9923 13.7054C36.9326 12.4094 40.1129 13.1228 41.7194 14.25C42.0003 14.446 42.1571 15.1158 42.0623 15.4897C41.6976 16.9219 41.2107 18.3232 40.7767 19.739C40.4502 20.8063 40.0472 21.8609 39.8649 22.9536C39.7518 23.6343 39.9013 24.3948 40.0801 25.0828C41.3803 30.1071 42.0295 35.1823 41.0794 40.33C40.7712 42.0018 41.3748 43.4321 41.7833 44.926C42.7789 48.5672 43.8311 52.1866 44.8833 55.8169C45.8316 59.0932 46.789 62.3696 47.7792 65.6332C48.0873 66.6515 47.9141 66.9927 46.8674 66.9946C42.734 67.0018 38.6005 67.0018 34.4671 66.9946L34.4616 66.9728ZM34.4233 66.136C38.1301 66.136 41.838 66.136 45.5471 66.136C46.5483 66.136 46.7233 65.9345 46.4388 64.938C45.941 63.1973 45.4122 61.4638 44.9143 59.7231C43.4993 54.7841 42.106 49.8396 40.6782 44.906C40.1475 43.0691 39.5749 41.2558 40.2734 39.3299C40.3937 38.9977 40.3773 38.6038 40.4047 38.2517C40.7325 33.7477 40.2433 29.2218 38.9604 24.8904C38.6618 23.8431 38.7039 22.7286 39.0807 21.7066C39.7318 19.7571 40.3117 17.7859 40.939 15.831C41.094 15.3427 40.9955 14.9833 40.5195 14.7909C38.7288 14.0648 36.938 13.5403 35.1965 14.9252C34.7388 15.2882 34.2538 15.3445 33.7833 14.9597C32.0946 13.5784 30.3185 14.034 28.5423 14.7147C28.0226 14.9143 27.7874 15.2592 27.9953 15.8546C28.4676 17.2559 28.9526 18.659 29.3356 20.0875C29.7623 21.6885 30.4899 23.1732 29.9647 25.0084C28.4785 30.2015 27.8658 35.4908 28.9216 40.8746C29.0313 41.4358 29.0145 42.0142 28.8724 42.5681C28.143 45.309 27.357 48.0372 26.5729 50.7635C25.207 55.5265 23.8211 60.284 22.4571 65.0487C22.2091 65.9164 22.4097 66.1378 23.3142 66.1378C27.016 66.1378 30.7203 66.1372 34.427 66.136H34.4233Z" fill="black"/>
<path d="M34.4271 66.1378H23.3033C22.3915 66.1378 22.1982 65.9164 22.4462 65.0487C23.8103 60.284 25.1962 55.5265 26.562 50.7635C27.3462 48.0408 28.1303 45.309 28.8616 42.5681C29.0036 42.0142 29.0204 41.4358 28.9108 40.8746C27.8549 35.4908 28.4677 30.2015 29.9539 25.0084C30.4791 23.1769 29.7515 21.6885 29.3247 20.0875C28.9418 18.659 28.4567 17.2559 27.9844 15.8546C27.782 15.2556 28.0172 14.9143 28.5315 14.7147C30.3113 14.034 32.0838 13.5784 33.7724 14.9597C34.2429 15.3445 34.728 15.2882 35.1857 14.9252C36.9272 13.5403 38.718 14.063 40.5087 14.7909C40.9847 14.9833 41.0831 15.3354 40.9281 15.831C40.3008 17.7859 39.7209 19.7571 39.0699 21.7066C38.6931 22.7286 38.6509 23.8431 38.9495 24.8904C40.2325 29.2218 40.7217 33.7477 40.3938 38.2517C40.3665 38.6147 40.3829 38.9977 40.2625 39.3299C39.5641 41.2558 40.1367 43.0691 40.6673 44.906C42.0952 49.8396 43.4884 54.7841 44.9035 59.7231C45.4013 61.4638 45.9302 63.1973 46.428 64.938C46.7125 65.9345 46.5374 66.1378 45.5363 66.136C41.8381 66.1336 38.135 66.1342 34.4271 66.1378Z" fill="white"/>
</svg>
