<svg width="18" height="24" viewBox="0 0 18 24" fill="none" xmlns="http://www.w3.org/2000/svg">
<path d="M9.5625 0.304688C4.75275 0.304688 0 3.51094 0 8.70019C0 12.0002 1.85625 13.8752 2.98125 13.8752C3.4455 13.8752 3.7125 12.5814 3.7125 12.2162C3.7125 11.7804 2.60175 10.8519 2.60175 9.03769C2.60175 5.26894 5.4705 2.59669 9.183 2.59669C12.375 2.59669 14.7375 4.41094 14.7375 7.74394C14.7375 10.2332 13.7393 14.9019 10.5045 14.9019C9.3375 14.9019 8.3385 14.0582 8.3385 12.8492C8.3385 11.0769 9.576 9.36169 9.576 7.53319C9.576 4.43044 5.17425 4.99294 5.17425 8.74294C5.17425 9.53044 5.2725 10.4019 5.62425 11.1197C4.977 13.9044 3.6555 18.0527 3.6555 20.9214C3.6555 21.8072 3.78225 22.6794 3.86625 23.5652C4.02525 23.7437 3.94575 23.7249 4.1895 23.6357C6.552 20.4009 6.468 19.7687 7.53675 15.5357C8.1135 16.6329 9.60375 17.2232 10.785 17.2232C15.7627 17.2232 17.9993 12.3714 17.9993 7.99819C17.9993 3.34369 13.977 0.306188 9.56175 0.306188L9.5625 0.304688Z" fill="white"/>
</svg>
