<svg width="6" height="10" viewBox="0 0 6 10" fill="none" xmlns="http://www.w3.org/2000/svg">
<path d="M0.554375 0.83943C0.625395 0.768565 0.719025 0.724862 0.818953 0.715934C0.918882 0.707006 1.01878 0.73342 1.10123 0.790573L1.16123 0.83943L5.01838 4.69657C5.08924 4.76759 5.13294 4.86122 5.14187 4.96115C5.1508 5.06108 5.12439 5.16097 5.06723 5.24343L5.01838 5.30343L1.16123 9.16057C1.08564 9.2365 0.984353 9.28136 0.877327 9.28632C0.770301 9.29127 0.6653 9.25596 0.583019 9.18734C0.500737 9.11872 0.447143 9.02176 0.432798 8.91559C0.418453 8.80941 0.444397 8.70171 0.505519 8.61372L0.554375 8.55372L4.10895 5L0.554375 1.44629C0.514464 1.40648 0.482799 1.35918 0.461193 1.30712C0.439588 1.25505 0.428467 1.19923 0.428467 1.14286C0.428467 1.08649 0.439588 1.03067 0.461193 0.978601C0.482799 0.926533 0.514464 0.87924 0.554375 0.83943Z" fill="white"/>
</svg>
