<svg width="87" height="20" viewBox="0 0 87 20" fill="none" xmlns="http://www.w3.org/2000/svg">
<path d="M4.44 19.368C4.216 19.368 3.936 19.312 3.6 19.2C3.28 19.104 2.992 18.92 2.736 18.648C2.496 18.376 2.376 17.976 2.376 17.448C2.376 16.984 2.472 16.376 2.664 15.624C2.872 14.872 3.128 14.032 3.432 13.104C3.736 12.16 4.04 11.176 4.344 10.152C4.648 9.112 4.896 8.072 5.088 7.032C5.296 5.992 5.4 4.992 5.4 4.032C5.4 3.44 5.376 2.888 5.328 2.376C5.296 1.864 5.176 1.456 4.968 1.152C4.776 0.832 4.44 0.672 3.96 0.672C3.512 0.672 3.128 0.808 2.808 1.08C2.504 1.336 2.248 1.672 2.04 2.088C1.848 2.504 1.704 2.944 1.608 3.408C1.528 3.872 1.488 4.304 1.488 4.704C1.488 4.96 1.504 5.2 1.536 5.424C1.584 5.632 1.64 5.824 1.704 6C1.08 6 0.64 5.832 0.384 5.496C0.128 5.144 0 4.736 0 4.272C0 3.776 0.112 3.28 0.336 2.784C0.576 2.288 0.896 1.832 1.296 1.416C1.712 0.984 2.184 0.64 2.712 0.383999C3.24 0.128 3.8 0 4.392 0C5.384 0 6.12 0.392 6.6 1.176C7.096 1.944 7.344 2.976 7.344 4.272C7.344 5.2 7.24 6.176 7.032 7.2C6.824 8.208 6.568 9.216 6.264 10.224C5.96 11.232 5.648 12.2 5.328 13.128C5.024 14.056 4.768 14.912 4.56 15.696C4.352 16.48 4.248 17.144 4.248 17.688C4.248 17.96 4.288 18.184 4.368 18.36C4.464 18.536 4.648 18.624 4.92 18.624C5.368 18.624 5.888 18.392 6.48 17.928C7.072 17.48 7.68 16.864 8.304 16.08C8.944 15.28 9.56 14.384 10.152 13.392C10.76 12.4 11.304 11.368 11.784 10.296C12.264 9.208 12.648 8.144 12.936 7.104C13.224 6.064 13.368 5.104 13.368 4.224C13.368 3.424 13.248 2.84 13.008 2.472C12.768 2.088 12.448 1.84 12.048 1.728C12.272 1.344 12.504 1.064 12.744 0.888C13 0.712 13.232 0.624001 13.44 0.624001C13.776 0.624001 14.104 0.84 14.424 1.272C14.744 1.704 14.904 2.376 14.904 3.288C14.904 4.168 14.736 5.168 14.4 6.288C14.08 7.408 13.64 8.576 13.08 9.792C12.52 10.992 11.88 12.16 11.16 13.296C10.44 14.432 9.688 15.456 8.904 16.368C8.12 17.28 7.344 18.008 6.576 18.552C5.808 19.096 5.096 19.368 4.44 19.368Z" fill="white"/>
<path d="M18.5627 17.904C17.9387 17.904 17.4747 17.704 17.1707 17.304C16.8667 16.92 16.7147 16.448 16.7147 15.888C16.7147 15.52 16.7787 15.056 16.9067 14.496C17.0507 13.936 17.2347 13.352 17.4587 12.744C17.6827 12.12 17.9387 11.536 18.2267 10.992C18.5307 10.448 18.8507 10.008 19.1867 9.672C19.5227 9.32 19.8507 9.144 20.1707 9.144C20.3147 9.144 20.4347 9.192 20.5307 9.288C20.6427 9.368 20.6987 9.496 20.6987 9.672C20.6987 9.864 20.5707 10.176 20.3147 10.608C20.0747 11.04 19.7867 11.536 19.4507 12.096C19.1147 12.656 18.8187 13.248 18.5627 13.872C18.3227 14.48 18.2027 15.064 18.2027 15.624C18.2027 16.2 18.2987 16.584 18.4907 16.776C18.6827 16.968 18.9787 17.064 19.3787 17.064C19.9227 17.064 20.4987 16.792 21.1067 16.248C21.7307 15.704 22.3867 14.752 23.0747 13.392L23.2907 13.632C22.8267 15.008 22.1547 16.064 21.2747 16.8C20.4107 17.536 19.5067 17.904 18.5627 17.904ZM21.4427 6.912C21.1867 6.912 20.9547 6.848 20.7467 6.72C20.5547 6.592 20.4587 6.392 20.4587 6.12C20.4587 5.784 20.6507 5.496 21.0347 5.256C21.4347 5 21.8267 4.872 22.2107 4.872C22.4507 4.872 22.6427 4.928 22.7867 5.04C22.9307 5.152 23.0027 5.344 23.0027 5.616C23.0027 5.92 22.8347 6.216 22.4987 6.504C22.1787 6.776 21.8267 6.912 21.4427 6.912Z" fill="white"/>
<path d="M28.0718 18.624C27.3038 18.624 26.6637 18.368 26.1518 17.856C25.6398 17.344 25.3838 16.576 25.3838 15.552C25.3838 14.752 25.5357 13.976 25.8398 13.224C26.1597 12.456 26.5758 11.768 27.0877 11.16C27.5998 10.552 28.1677 10.072 28.7917 9.72C29.4158 9.352 30.0318 9.168 30.6398 9.168C31.2958 9.168 31.7438 9.36 31.9838 9.744C32.2238 10.128 32.3438 10.528 32.3438 10.944C32.3438 11.408 32.2318 11.816 32.0078 12.168C31.7998 12.52 31.5118 12.696 31.1438 12.696C30.8718 12.696 30.6397 12.576 30.4478 12.336C30.6877 12.208 30.8958 11.952 31.0718 11.568C31.2478 11.168 31.3358 10.792 31.3358 10.44C31.3358 10.248 31.2957 10.104 31.2157 10.008C31.1518 9.896 31.0158 9.84 30.8078 9.84C30.3758 9.84 29.9278 10.032 29.4638 10.416C29.0158 10.8 28.5917 11.296 28.1917 11.904C27.8077 12.512 27.4878 13.152 27.2318 13.824C26.9918 14.496 26.8717 15.128 26.8717 15.72C26.8717 16.216 26.9918 16.672 27.2318 17.088C27.4718 17.504 27.9358 17.712 28.6238 17.712C29.2638 17.712 29.9038 17.536 30.5438 17.184C31.1998 16.832 31.8078 16.328 32.3678 15.672C32.9278 15.016 33.3758 14.248 33.7118 13.368L34.0238 13.608C33.6558 14.568 33.1517 15.432 32.5117 16.2C31.8717 16.952 31.1677 17.544 30.3997 17.976C29.6318 18.408 28.8558 18.624 28.0718 18.624Z" fill="white"/>
<path d="M38.1816 18.384C37.4936 18.384 36.9656 18.184 36.5976 17.784C36.2296 17.384 36.0456 16.792 36.0456 16.008C36.0456 15.304 36.1736 14.44 36.4296 13.416C36.7016 12.376 37.0376 11.312 37.4376 10.224C37.2776 10.192 37.1256 10.168 36.9816 10.152C36.8376 10.12 36.7016 10.08 36.5736 10.032V9.6C36.7016 9.616 36.8536 9.632 37.0296 9.648C37.2056 9.664 37.4056 9.68 37.6296 9.696C37.9656 8.832 38.3256 8 38.7096 7.2C39.0936 6.384 39.4696 5.664 39.8376 5.04C40.2216 4.4 40.5816 3.896 40.9176 3.528C41.2696 3.144 41.5656 2.952 41.8056 2.952C41.9336 2.952 42.0456 3 42.1416 3.096C42.2536 3.176 42.3096 3.304 42.3096 3.48C42.3096 3.752 42.1416 4.2 41.8056 4.824C41.4696 5.432 41.0536 6.16 40.5576 7.008C40.0616 7.856 39.5816 8.776 39.1176 9.768C39.2616 9.768 39.4056 9.768 39.5496 9.768C39.7096 9.768 39.8616 9.768 40.0056 9.768C40.5336 9.768 41.0856 9.76 41.6616 9.744C42.2536 9.728 42.8456 9.688 43.4376 9.624V10.056C42.5576 10.152 41.7656 10.224 41.0616 10.272C40.3736 10.32 39.7576 10.344 39.2136 10.344C39.1496 10.344 39.0856 10.344 39.0216 10.344C38.9736 10.344 38.9176 10.344 38.8536 10.344C38.4856 11.192 38.1736 12.064 37.9176 12.96C37.6616 13.856 37.5336 14.728 37.5336 15.576C37.5336 16.264 37.6376 16.76 37.8456 17.064C38.0536 17.352 38.3976 17.496 38.8776 17.496C39.7096 17.496 40.5256 17.128 41.3256 16.392C42.1256 15.656 42.8296 14.656 43.4376 13.392L43.7496 13.632C43.3656 14.528 42.8776 15.336 42.2856 16.056C41.7096 16.776 41.0696 17.344 40.3656 17.76C39.6616 18.176 38.9336 18.384 38.1816 18.384Z" fill="white"/>
<path d="M47.4973 18.048C46.8893 18.048 46.4173 17.848 46.0813 17.448C45.7453 17.064 45.5773 16.568 45.5773 15.96C45.5773 15.448 45.6813 14.88 45.8893 14.256C46.1133 13.616 46.4173 12.984 46.8013 12.36C47.1853 11.72 47.6173 11.136 48.0973 10.608C48.5933 10.08 49.1213 9.656 49.6813 9.336C50.2413 9 50.8093 8.832 51.3853 8.832C51.6893 8.832 51.9213 8.88 52.0813 8.976C52.2413 9.072 52.3533 9.192 52.4173 9.336C52.4493 9.32 52.4733 9.312 52.4893 9.312C52.5213 9.312 52.5533 9.312 52.5853 9.312C52.8893 9.312 53.0973 9.432 53.2093 9.672C53.3373 9.912 53.4013 10.104 53.4013 10.248C53.4013 10.44 53.3213 10.696 53.1613 11.016C53.0013 11.32 52.8413 11.664 52.6813 12.048C52.5373 12.432 52.4653 12.84 52.4653 13.272C52.4653 13.72 52.5773 14.056 52.8013 14.28C53.0253 14.488 53.3853 14.592 53.8813 14.592C54.2013 14.592 54.5373 14.44 54.8893 14.136C55.2573 13.816 55.6173 13.416 55.9693 12.936C56.3213 12.44 56.6333 11.904 56.9053 11.328C57.1933 10.752 57.4093 10.2 57.5533 9.672C57.3933 9.512 57.3133 9.32 57.3133 9.096C57.3133 8.776 57.3773 8.496 57.5053 8.256C57.6333 8 57.7773 7.808 57.9373 7.68C58.1133 7.536 58.2413 7.464 58.3213 7.464C58.4973 7.464 58.5933 7.544 58.6093 7.704C58.6413 7.848 58.6573 7.96 58.6573 8.04C58.6573 8.12 58.6093 8.28 58.5133 8.52C58.4333 8.744 58.3933 8.88 58.3933 8.928C58.3933 9.152 58.5133 9.36 58.7533 9.552C59.0093 9.728 59.2973 9.936 59.6173 10.176C59.9373 10.4 60.2173 10.68 60.4573 11.016C60.7133 11.336 60.8413 11.752 60.8413 12.264C60.8413 12.744 60.7373 13.232 60.5293 13.728C60.3373 14.224 60.1373 14.696 59.9293 15.144C59.7373 15.592 59.6413 15.984 59.6413 16.32C59.6413 16.608 59.7133 16.8 59.8573 16.896C60.0013 16.992 60.1693 17.04 60.3613 17.04C60.7453 17.04 61.1373 16.92 61.5373 16.68C61.9533 16.44 62.3533 16.136 62.7373 15.768C63.1213 15.4 63.4653 15.016 63.7693 14.616C64.0733 14.2 64.2973 13.816 64.4413 13.464L64.7533 13.704C64.4493 14.376 64.0333 15.04 63.5053 15.696C62.9773 16.336 62.3853 16.864 61.7293 17.28C61.0893 17.696 60.4253 17.904 59.7373 17.904C59.1933 17.904 58.7613 17.76 58.4413 17.472C58.1373 17.184 57.9853 16.808 57.9853 16.344C57.9853 15.864 58.0973 15.36 58.3213 14.832C58.5453 14.304 58.7613 13.784 58.9693 13.272C59.1933 12.744 59.3053 12.272 59.3053 11.856C59.3053 11.344 59.1533 10.968 58.8493 10.728C58.5613 10.472 58.2653 10.24 57.9613 10.032C57.7853 10.576 57.5453 11.152 57.2413 11.76C56.9533 12.352 56.6253 12.912 56.2573 13.44C55.8893 13.952 55.4893 14.368 55.0573 14.688C54.6413 15.008 54.2013 15.168 53.7373 15.168C53.2893 15.168 52.8813 15.08 52.5133 14.904C52.1613 14.712 51.8893 14.432 51.6973 14.064C51.2013 15.232 50.5853 16.192 49.8493 16.944C49.1293 17.68 48.3453 18.048 47.4973 18.048ZM48.0253 17.016C48.3933 17.016 48.7853 16.856 49.2013 16.536C49.6173 16.2 50.0253 15.752 50.4253 15.192C50.8253 14.632 51.1693 14.008 51.4573 13.32C51.3613 12.936 51.3133 12.48 51.3133 11.952C51.3133 11.584 51.3293 11.264 51.3613 10.992C51.4093 10.72 51.4653 10.48 51.5293 10.272C51.6093 10.064 51.6893 9.896 51.7693 9.768C51.2253 9.768 50.7133 9.92 50.2333 10.224C49.7693 10.512 49.3453 10.896 48.9613 11.376C48.5773 11.84 48.2493 12.344 47.9773 12.888C47.7053 13.432 47.4893 13.96 47.3293 14.472C47.1853 14.984 47.1133 15.424 47.1133 15.792C47.1133 16.16 47.1933 16.456 47.3533 16.68C47.5133 16.904 47.7373 17.016 48.0253 17.016Z" fill="white"/>
<path d="M68.5436 17.904C67.9196 17.904 67.4556 17.704 67.1516 17.304C66.8476 16.92 66.6956 16.448 66.6956 15.888C66.6956 15.52 66.7596 15.056 66.8876 14.496C67.0316 13.936 67.2156 13.352 67.4396 12.744C67.6636 12.12 67.9196 11.536 68.2076 10.992C68.5116 10.448 68.8316 10.008 69.1676 9.672C69.5036 9.32 69.8316 9.144 70.1516 9.144C70.2956 9.144 70.4156 9.192 70.5116 9.288C70.6236 9.368 70.6796 9.496 70.6796 9.672C70.6796 9.864 70.5516 10.176 70.2956 10.608C70.0556 11.04 69.7676 11.536 69.4316 12.096C69.0956 12.656 68.7996 13.248 68.5436 13.872C68.3036 14.48 68.1836 15.064 68.1836 15.624C68.1836 16.2 68.2796 16.584 68.4716 16.776C68.6636 16.968 68.9596 17.064 69.3596 17.064C69.9036 17.064 70.4796 16.792 71.0876 16.248C71.7116 15.704 72.3676 14.752 73.0556 13.392L73.2716 13.632C72.8076 15.008 72.1356 16.064 71.2556 16.8C70.3916 17.536 69.4876 17.904 68.5436 17.904ZM71.4236 6.912C71.1676 6.912 70.9356 6.848 70.7276 6.72C70.5356 6.592 70.4396 6.392 70.4396 6.12C70.4396 5.784 70.6316 5.496 71.0156 5.256C71.4156 5 71.8076 4.872 72.1916 4.872C72.4316 4.872 72.6236 4.928 72.7676 5.04C72.9116 5.152 72.9836 5.344 72.9836 5.616C72.9836 5.92 72.8156 6.216 72.4796 6.504C72.1596 6.776 71.8076 6.912 71.4236 6.912Z" fill="white"/>
<path d="M76.6367 18.408C76.1407 18.408 75.7247 18.24 75.3887 17.904C75.0367 17.584 74.8607 17.088 74.8607 16.416C74.8607 15.84 74.9887 15.224 75.2447 14.568C75.5007 13.896 75.8527 13.24 76.3007 12.6C76.7487 11.944 77.2527 11.352 77.8127 10.824C78.3887 10.28 78.9887 9.848 79.6127 9.528C80.2527 9.208 80.8847 9.048 81.5087 9.048C82.1327 9.048 82.6527 9.216 83.0687 9.552C83.4847 9.872 83.6927 10.304 83.6927 10.848C83.6927 11.248 83.5807 11.52 83.3567 11.664C83.1487 11.808 82.8687 11.88 82.5167 11.88C82.5487 11.752 82.5727 11.616 82.5887 11.472C82.6207 11.312 82.6367 11.168 82.6367 11.04C82.6367 10.672 82.5487 10.36 82.3727 10.104C82.1967 9.832 81.8927 9.696 81.4607 9.696C81.0127 9.696 80.5567 9.856 80.0927 10.176C79.6287 10.48 79.1807 10.896 78.7487 11.424C78.3167 11.936 77.9327 12.496 77.5967 13.104C77.2607 13.712 76.9967 14.312 76.8047 14.904C76.6127 15.496 76.5167 16.024 76.5167 16.488C76.5167 17.112 76.7327 17.424 77.1647 17.424C77.5327 17.424 77.9327 17.256 78.3647 16.92C78.7967 16.568 79.2367 16.128 79.6847 15.6C80.1487 15.056 80.5887 14.496 81.0047 13.92C81.4207 13.344 81.7887 12.816 82.1087 12.336C82.1727 12.24 82.2127 12.192 82.2287 12.192C82.3247 12.208 82.4447 12.24 82.5887 12.288C82.7487 12.336 82.8847 12.4 82.9967 12.48C83.1087 12.56 83.1647 12.664 83.1647 12.792C83.1647 12.936 83.0927 13.136 82.9487 13.392C82.8047 13.632 82.6447 13.912 82.4687 14.232C82.2927 14.552 82.1327 14.88 81.9887 15.216C81.8447 15.536 81.7727 15.84 81.7727 16.128C81.7727 16.368 81.8367 16.608 81.9647 16.848C82.0927 17.072 82.3007 17.184 82.5887 17.184C83.0207 17.184 83.5887 16.872 84.2927 16.248C84.9967 15.608 85.7087 14.656 86.4287 13.392L86.6687 13.632C86.3327 14.496 85.9007 15.256 85.3727 15.912C84.8447 16.568 84.2767 17.08 83.6687 17.448C83.0767 17.816 82.4927 18 81.9167 18C81.3247 18 80.8847 17.824 80.5967 17.472C80.3247 17.12 80.1887 16.736 80.1887 16.32C80.1887 16.224 80.1967 16.12 80.2127 16.008C80.2287 15.88 80.2447 15.752 80.2607 15.624C79.5727 16.552 78.9407 17.248 78.3647 17.712C77.8047 18.176 77.2287 18.408 76.6367 18.408Z" fill="white"/>
</svg>
