<svg width="45" height="45" viewBox="0 0 45 45" fill="none" xmlns="http://www.w3.org/2000/svg">
<circle cx="22.5" cy="22.5" r="22" stroke="white"/>
<path d="M20.9808 17.2039C21.0811 17.2523 21.1658 17.3279 21.2251 17.4222C21.2844 17.5164 21.3159 17.6255 21.316 17.7368V27.2105C21.3158 27.3219 21.2842 27.431 21.2248 27.5253C21.1654 27.6196 21.0806 27.6952 20.9802 27.7434C20.8798 27.7917 20.7678 27.8106 20.6571 27.798C20.5464 27.7854 20.4414 27.7419 20.3544 27.6724L17.5561 25.4342H14.8028C14.6458 25.4342 14.4952 25.3718 14.3841 25.2608C14.2731 25.1497 14.2107 24.9991 14.2107 24.8421V20.1053C14.2107 19.9482 14.2731 19.7976 14.3841 19.6866C14.4952 19.5755 14.6458 19.5132 14.8028 19.5132H17.5561L20.3544 17.275C20.4415 17.2053 20.5465 17.1617 20.6574 17.1492C20.7682 17.1366 20.8803 17.1556 20.9808 17.2039ZM29.4325 19.686C29.4877 19.741 29.5314 19.8064 29.5613 19.8783C29.5911 19.9503 29.6065 20.0274 29.6065 20.1053C29.6065 20.1831 29.5911 20.2603 29.5613 20.3322C29.5314 20.4041 29.4877 20.4695 29.4325 20.5245L27.4821 22.4737L29.4325 24.4229C29.5437 24.5341 29.6062 24.6849 29.6062 24.8421C29.6062 24.9993 29.5437 25.1501 29.4325 25.2613C29.3214 25.3725 29.1706 25.435 29.0133 25.435C28.8561 25.435 28.7053 25.3725 28.5941 25.2613L26.6449 23.3109L24.6957 25.2613C24.5845 25.3725 24.4337 25.435 24.2765 25.435C24.1192 25.435 23.9685 25.3725 23.8573 25.2613C23.7461 25.1501 23.6836 24.9993 23.6836 24.8421C23.6836 24.6849 23.7461 24.5341 23.8573 24.4229L25.8077 22.4737L23.8573 20.5245C23.8022 20.4694 23.7586 20.4041 23.7288 20.3321C23.699 20.2602 23.6836 20.1831 23.6836 20.1053C23.6836 20.0274 23.699 19.9503 23.7288 19.8784C23.7586 19.8065 23.8022 19.7411 23.8573 19.686C23.9685 19.5749 24.1192 19.5124 24.2765 19.5124C24.3543 19.5124 24.4314 19.5277 24.5034 19.5575C24.5753 19.5873 24.6406 19.631 24.6957 19.686L26.6449 21.6364L28.5941 19.686C28.6491 19.6309 28.7145 19.5872 28.7864 19.5573C28.8583 19.5275 28.9354 19.5121 29.0133 19.5121C29.0912 19.5121 29.1683 19.5275 29.2403 19.5573C29.3122 19.5872 29.3775 19.6309 29.4325 19.686Z" fill="white"/>
</svg>
